<svg width="450" height="385" xmlns="http://www.w3.org/2000/svg"><path d="M0 20h423c10 0 15 6 15 15v12H20V35c0-9 5-15 15-15z" fill="#CCD1D9"/><path fill="#545C66" d="M20 47h21v324H20z"/><path fill="#6C747F" d="M41 47h1v324h-1z"/><path fill="#656D78" d="M42 47h187v324H42z"/><path fill="#E6E9ED" d="M229 47h209v324H229z"/><path d="M67 74h129" stroke="#5D9CEC" stroke-width="14" stroke-linecap="round"/><path d="M80 101h130" stroke="#A0D468" stroke-width="14" stroke-linecap="round"/><path d="M94 128h28" stroke="#ED5565" stroke-width="14" stroke-linecap="round"/><path d="M148 121c-4 0-7 3-7 7s3 7 7 7v-14m0 14h81v-14h-81v14" fill="#ED5565"/><path d="M107 148c-4 0-7 3-7 7s3 7 7 7v-14m0 14h122v-14H107v14" fill="#FFCE54"/><path d="M107 181h76m-76 27h22" stroke="#CCD1D9" stroke-width="14" stroke-linecap="round"/><path d="M154 201a7 7 0 100 14v-14zm0 14h75v-14h-75v14zm-47 13a7 7 0 100 14v-14zm0 14h122v-14H107v14z" fill="#CCD1D9"/><path d="M107 262h89" stroke="#FFCE54" stroke-width="14" stroke-linecap="round"/><path d="M94 289h62" stroke="#ED5565" stroke-width="14" stroke-linecap="round"/><path d="M80 316h96" stroke="#A0D468" stroke-width="14" stroke-linecap="round"/><path d="M67 343h42" stroke="#5D9CEC" stroke-width="14" stroke-linecap="round"/><rect x="229" y="67" width="189" height="122" rx="5" fill="#5D9CEC"/><rect x="249" y="208" width="169" height="88" rx="5" fill="#5D9CEC"/><path d="M296 133s1 0 3 2l49.5 54H246l47-55c1-1 2-1 3-1" fill="#545C66"/><path d="M343 113s2 0 4 2l58 74H282l57-74c2-2 3-2 4-2" fill="#656D78"/><path d="M326.5 254c.5 0 2.5 0 4.5 2l27 40h-65l29-40c2-2 4-2 4-2" fill="#545C66"/><path d="M363.5 241c.5 0 2.5 0 4.5 2l38 53h-86l39-53c2-2 4-2 4-2" fill="#656D78"/><circle cx="283" cy="235" r="15" fill="#FFCE54"/><path d="M255 309c-4 0-7 3-7 7s3 7 7 7v-14m156 14c4 0 7-3 7-7s-3-7-7-7v14m-156 0h156v-14H255v14m0 13c-4 0-7 3-7 7 0 3 3 7 7 7v-14m82 14c3 0 7-4 7-7 0-4-4-7-7-7v14m-82 0h82v-14h-82v14" fill="#CCD1D9"/></svg>