<svg width="59" height="59" fill="none" xmlns="http://www.w3.org/2000/svg"><path d="M29.489 2.008h.022c5.466-.03 7.971.023 11.996.192 2.975.173 4.344.437 6.523 1.228 2.092.848 3.02 1.47 4.58 2.962 1.492 1.56 2.114 2.488 2.962 4.58.791 2.18 1.055 3.548 1.228 6.523.169 4.025.223 6.53.192 11.996v.022c.03 5.466-.023 7.971-.192 11.996-.173 2.975-.437 4.344-1.228 6.523-.848 2.092-1.47 3.02-2.962 4.58-1.56 1.492-2.488 2.114-4.58 2.962-2.18.791-3.548 1.055-6.523 1.228-4.025.169-6.53.223-11.996.192h-.022c-5.466.03-7.971-.023-11.996-.192-2.975-.173-4.344-.437-6.523-1.228-2.092-.848-3.02-1.47-4.58-2.962-1.492-1.56-2.114-2.488-2.962-4.58-.791-2.18-1.055-3.548-1.228-6.523-.169-4.025-.223-6.53-.192-11.996v-.022c-.03-5.466.023-7.971.192-11.996.173-2.975.437-4.344 1.228-6.523.848-2.092 1.47-3.02 2.962-4.58 1.56-1.492 2.488-2.114 4.58-2.962 2.18-.791 3.548-1.055 6.523-1.228 4.025-.169 6.53-.223 11.996-.192z" stroke="#2C3036" stroke-width="4" stroke-linecap="square"/><circle cx="29.5" cy="29.5" r="12.5" stroke="#2C3036" stroke-width="4" stroke-linecap="square"/><circle cx="45.5" cy="13.5" r="3.5" fill="#2C3036"/></svg>