<svg width="18" height="18" fill="none" xmlns="http://www.w3.org/2000/svg"><path d="M11.365.26c-3.42 0-6.2 2.82-6.2 6.26 0 1.46.5 2.78 1.32 3.86l-5.88 5.94c-.34.36-.34.92 0 1.26.18.18.4.26.62.26.24 0 .46-.08.64-.26l5.88-5.96c1.02.74 2.26 1.16 3.6 1.16 3.42 0 6.2-2.82 6.2-6.26.02-3.46-2.76-6.26-6.18-6.26zm0 10.94c-2.54 0-4.6-2.1-4.6-4.68 0-2.58 2.06-4.68 4.6-4.68 2.54 0 4.6 2.1 4.6 4.68 0 2.58-2.06 4.68-4.6 4.68zm3.1-4.6a.69.69 0 01-.68.6h-.1a.71.71 0 01-.6-.78c.14-1.04-1.02-1.58-1.08-1.6a.703.703 0 01-.34-.92c.16-.34.56-.5.92-.36.08.02 2.16.98 1.88 3.06zm-1.46 1.52c.14.14.24.36.24.56 0 .22-.08.42-.24.56a.84.84 0 01-.56.24c-.2 0-.42-.08-.56-.24a.84.84 0 01-.24-.56c0-.2.08-.42.24-.56a.84.84 0 01.56-.24c.2 0 .4.08.56.24z" fill="#1E0606"/></svg>