<svg width="89" height="129" fill="none" xmlns="http://www.w3.org/2000/svg"><path d="M74.742 13.409l1.21-1.209 2.176-1.45 5.564-.483c.726 0 1.451-.483 1.451-1.208l1.935-.242c.968 0 1.694-.967 1.452-1.933 0-.242-.242-.483-.242-.725.484-.483.484-1.208.242-1.933-.484-1.209-1.694-1.934-2.661-1.692l-7.74 2.175h-.727l-.241.242-5.564 5.074c-.726.725-.726 1.934 0 2.9.968.967 2.419 1.209 3.145.484z" fill="#FFAE80"/><path d="M68.21 32.5l3.388-3.383a8.689 8.689 0 001.935-2.9l1.21-2.9c.241-.242.241-.725.483-.967l4.838-4.833c.726-.725.726-1.933-.242-2.9-.968-.725-2.177-.966-2.903-.241l-3.144 3.383 1.209-4.592 4.112-5.558 6.531-2.9c.968-.483 1.21-1.691.726-2.658C85.628 1.084 84.418.6 83.45.843l-7.74 3.625s-4.112 3.866-5.322 5.074c-.242.242-.484.725-.726.967-1.21 1.692-4.112 6.283-5.321 10.875l-2.661 5.558 6.53 5.558z" fill="#FFAE80"/><path d="M2.667 105.396c2.661-4.35 6.29-7.25 10.16-11.117l.967-.966c5.322-5.558 16.691-16.433 16.691-16.433s22.98-38.666 31.93-55.099l10.402 18.125c-7.015 14.74-18.384 42.774-22.98 48.815-8.466 11.117-18.384 21.991-27.576 33.349-2.661 3.142-7.015 5.8-11.127 6.525-1.21.242-2.177.242-3.145 0-3.628-.725-6.047-3.625-7.015-7.491-1.693-5.075-1.21-10.875 1.693-15.708z" fill="#EA4A49"/></svg>