<svg width="269" height="127" fill="none" xmlns="http://www.w3.org/2000/svg"><path d="M4.532 93.645h10.16c2.177 0 3.87-1.692 3.87-3.867V48.696c0-2.175-1.693-3.867-3.87-3.867H4.532c-2.177 0-3.87 1.692-3.87 3.867v41.082c-.242 1.934 1.693 3.867 3.87 3.867z" fill="#AFA7BA"/><path d="M18.564 79.87H14.45c-1.21 0-2.419-.966-2.419-2.416V60.537c0-1.208.968-2.416 2.42-2.416h4.112v21.75z" fill="#C1B9CD"/><path d="M253.685 68.996c0 5.316 3.144 9.666 7.014 9.666 3.871 0 7.015-4.35 7.015-9.666 0-5.317-3.144-9.667-7.015-9.667-3.87 0-7.014 4.35-7.014 9.667z" fill="#D8CFE6"/><path d="M264.813 58.362h-3.144V79.87h3.144V58.362z" fill="#AFA7BA"/><path d="M14.934 51.354v52.199h247.218l-.484-44.224v-.967c-.484-3.141-3.145-5.558-6.289-5.8l-61.2-4.591h-.968l-.242-1.933-6.531-34.558c-.242-.966-.484-1.691-.725-2.658-1.936-4.833-6.774-7.975-12.095-7.975H42.026c-6.047 0-11.611 3.142-14.998 7.975-.967 1.692-1.935 3.383-2.418 5.316l-8.95 33.833-.726 3.383z" fill="#D0C7DD"/><path d="M133.947 12.447h46.444c1.209 0 2.177.967 2.419 2.175l6.773 36.974V92.68c0 1.45-1.21 2.658-2.661 2.658h-53.217c-1.452 0-2.661-1.208-2.661-2.658V15.105c.242-1.45 1.451-2.658 2.903-2.658z" fill="#AFA7BA"/><path d="M133.705 49.421V15.105s0-.241.242-.241h46.686l6.289 34.316h-53.217v.241z" fill="#DDD3EA"/><path d="M262.152 97.27H14.934v6.283h247.218V97.27z" fill="#AFA7BA"/><path d="M191.276 103.553v-.725c0-15.225 12.337-27.791 27.819-27.791 15.239 0 27.818 12.325 27.818 27.791v.725h-55.637zm-158.442 0v-.725c0-15.225 12.337-27.791 27.818-27.791 15.481 0 27.818 12.325 27.818 27.791v.725H32.834z" fill="#A39BAD"/><path d="M137.818 57.88h7.257c.967 0 1.935-.967 1.935-1.934 0-1.208-.968-1.933-1.935-1.933h-7.257c-.968 0-1.935.966-1.935 1.933 0 .967.967 1.933 1.935 1.933z" fill="#fff"/><path d="M36.462 67.787h7.741a4.334 4.334 0 004.354-4.35v-3.624a4.334 4.334 0 00-4.354-4.35h-7.74a4.334 4.334 0 00-4.355 4.35v3.625a4.334 4.334 0 004.355 4.35z" fill="#C4BCD0"/><path d="M194.18 47.97c0 5.8 4.596 10.15 10.159 10.15h57.33c-.484-3.14-3.145-5.557-6.289-5.8l-61.2-4.35zM27.03 8.822h158.44c-1.935-4.833-6.773-7.975-12.094-7.975H41.785c-5.805 0-11.37 3.142-14.756 7.975zm40.153 42.532l9.434-36.732c.242-1.45 1.694-2.417 2.903-2.417h45.476c1.694 0 3.145 1.45 3.145 3.142v76.606c0 1.692-1.451 3.142-3.145 3.142H94.034c-1.452 0-2.661-.967-2.903-2.417-1.935-8.7-11.853-18.124-21.287-19.574-1.451-.242-2.66-1.45-2.66-3.142V52.08c-.242-.242-.242-.483 0-.725z" fill="#AFA7BA"/><path d="M70.087 49.421l8.708-34.074c0-.242.242-.483.726-.483h45.477c.483 0 .725.241.725.725V49.42H70.087z" fill="#DDD3EA"/><path d="M72.264 57.88h7.257c.968 0 1.935-.967 1.935-1.934 0-1.208-.967-1.933-1.935-1.933h-7.257c-.967 0-1.935.966-1.935 1.933 0 .967.968 1.933 1.935 1.933z" fill="#fff"/><path opacity=".75" d="M151.364 15.83l24.673 32.383h-12.579L138.543 15.83h12.821zm4.596 0l24.673 32.383h-3.386L152.815 15.83h3.145zm-61.685 0l24.674 32.383H106.37L81.455 15.83h12.82zm4.837 0l24.431 32.383h-3.144L95.726 15.83h3.386z" fill="#fff"/><path d="M42.269 15.83c0 .725.483 1.208 1.209 1.208h14.514c.726 0 1.21-.483 1.21-1.208s-.484-1.208-1.21-1.208H43.478c-.726 0-1.21.483-1.21 1.208zm-.969 4.108c0 .725.485 1.208 1.21 1.208h14.514c.726 0 1.21-.483 1.21-1.208s-.484-1.208-1.21-1.208H42.51c-.725 0-1.21.483-1.21 1.208zm-.966 4.109c0 .725.484 1.208 1.21 1.208h14.513c.726 0 1.21-.483 1.21-1.208s-.484-1.208-1.21-1.208H41.543c-.725 0-1.209.483-1.209 1.208zm-.971 4.108c0 .725.484 1.208 1.21 1.208h14.514c.725 0 1.21-.483 1.21-1.208s-.485-1.208-1.21-1.208H40.573c-.726 0-1.21.483-1.21 1.208zm-.965 4.108c0 .725.484 1.209 1.21 1.209h14.514c.725 0 1.21-.484 1.21-1.209 0-.725-.485-1.208-1.21-1.208H39.608c-.726 0-1.21.483-1.21 1.208zm-1.21 4.108c0 .725.484 1.209 1.21 1.209H52.91c.726 0 1.21-.484 1.21-1.209 0-.725-.484-1.208-1.21-1.208H38.398c-.484 0-1.21.483-1.21 1.208zm-.968 4.109c0 .725.483 1.208 1.21 1.208h14.513c.726 0 1.21-.483 1.21-1.209 0-.724-.484-1.208-1.21-1.208H37.43c-.484 0-1.21.484-1.21 1.209z" fill="#AFA7BA"/><path opacity=".2" d="M262.152 93.162v10.391H14.934v-10.15H4.532c-2.177 0-3.87-1.691-3.87-3.866V74.07l261.49 19.09z" fill="#8E8796"/><path d="M205.791 102.345a13 13 0 0013.062 13.049 13.002 13.002 0 0013.063-13.049c0-7.25-5.806-13.05-13.063-13.05-7.015-.242-13.062 5.8-13.062 13.05z" fill="#9891A1"/><path d="M194.421 102.345c0 13.533 11.127 24.408 24.673 24.408 13.547 0 24.432-11.117 24.432-24.65 0-13.533-11.127-24.408-24.674-24.408-13.304 0-24.431 11.117-24.431 24.65zm9.434 0c0-8.458 6.773-15.225 14.997-15.225 8.467 0 15.24 6.767 15.24 14.983 0 8.217-6.773 14.983-14.998 15.225-8.466 0-15.239-6.767-15.239-14.983z" fill="#9891A1"/><path d="M201.678 102.345c0 9.667 7.74 17.4 17.416 17.4s17.417-7.733 17.417-17.4c0-9.666-7.741-17.4-17.417-17.4-9.676 0-17.416 7.734-17.416 17.4zm1.935 0c0-8.458 7.015-15.466 15.481-15.466 8.467 0 15.482 7.008 15.482 15.466 0 8.458-7.015 15.466-15.482 15.466-8.708 0-15.481-7.008-15.481-15.466z" fill="#E2D8F1"/><path d="M208.45 102.345c0 5.8 4.838 10.633 10.644 10.633 5.805 0 10.643-4.833 10.643-10.633 0-5.8-4.838-10.633-10.643-10.633-6.048 0-10.644 4.591-10.644 10.633zm3.87 0c0-3.625 2.903-6.767 6.774-6.767 3.628 0 6.773 2.9 6.773 6.767 0 3.625-2.903 6.766-6.773 6.766-3.871-.241-6.774-3.141-6.774-6.766z" fill="#EADFF8"/><path d="M212.319 102.345c0 3.625 2.903 6.767 6.774 6.767 3.628 0 6.773-2.9 6.773-6.767 0-3.625-2.903-6.766-6.773-6.766-3.871 0-6.774 2.9-6.774 6.766zm4.113-2.658c-.484.483-.968.483-1.452 0s-.484-.967 0-1.45.968-.483 1.452 0c.483.483.483 1.208 0 1.45zm3.144-1.45c0 .242-.242.483-.483.483-.242 0-.484-.241-.484-.483s.242-.483.484-.483c.241-.242.483 0 .483.483zm3.387 1.45c-.484.483-.968.483-1.452 0-.483-.483-.483-.967 0-1.45.484-.483.968-.483 1.452 0 .242.483.242 1.208 0 1.45zm.242 3.141c-.242 0-.484-.241-.484-.483s.242-.483.484-.483c.241 0 .483.241.483.483s-.242.483-.483.483zm-1.694 1.934c.484-.484.968-.484 1.452 0 .484.483.484.966 0 1.45-.484.483-.968.483-1.452 0a1.544 1.544 0 010-1.45zm-3.144 1.691c0-.241.242-.483.484-.483.241 0 .483.242.483.483 0 .242-.242.484-.483.484-.242 0-.484-.242-.484-.484zm-1.935-4.108c0-1.45 1.209-2.658 2.661-2.658 1.451 0 2.66 1.208 2.66 2.658s-1.209 2.658-2.66 2.658c-1.452-.241-2.661-1.208-2.661-2.658zm-1.21 2.417c.484-.484.968-.484 1.452 0 .483.483.483.966 0 1.45-.484.483-.968.483-1.452 0-.484-.484-.484-.967 0-1.45zm-.967-2.417c0-.242.241-.483.483-.483s.484.241.484.483-.242.483-.484.483a.519.519 0 01-.483-.483z" fill="#E1D7EF"/><path d="M212.319 102.345c0 3.625 2.903 6.767 6.774 6.767 3.628 0 6.773-2.9 6.773-6.767 0-3.625-2.903-6.766-6.773-6.766-3.871 0-6.774 2.9-6.774 6.766zm4.113-2.658c-.484.483-.968.483-1.452 0s-.484-.967 0-1.45.968-.483 1.452 0c.483.483.483 1.208 0 1.45zm3.144-1.45c0 .242-.242.483-.483.483-.242 0-.484-.241-.484-.483s.242-.483.484-.483c.241-.242.483 0 .483.483zm3.387 1.45c-.484.483-.968.483-1.452 0-.483-.483-.483-.967 0-1.45.484-.483.968-.483 1.452 0 .242.483.242 1.208 0 1.45zm.242 3.141c-.242 0-.484-.241-.484-.483s.242-.483.484-.483c.241 0 .483.241.483.483s-.242.483-.483.483zm-1.694 1.934c.484-.484.968-.484 1.452 0 .484.483.484.966 0 1.45-.484.483-.968.483-1.452 0a1.544 1.544 0 010-1.45zm-3.144 1.691c0-.241.242-.483.484-.483.241 0 .483.242.483.483 0 .242-.242.484-.483.484-.242 0-.484-.242-.484-.484zm-1.935-4.108c0-1.45 1.209-2.658 2.661-2.658 1.451 0 2.66 1.208 2.66 2.658s-1.209 2.658-2.66 2.658c-1.452-.241-2.661-1.208-2.661-2.658zm-1.21 2.417c.484-.484.968-.484 1.452 0 .483.483.483.966 0 1.45-.484.483-.968.483-1.452 0-.484-.484-.484-.967 0-1.45zm-.967-2.417c0-.242.241-.483.483-.483s.484.241.484.483-.242.483-.484.483a.519.519 0 01-.483-.483z" fill="#DBD1E8"/><path d="M203.613 102.345c0 8.458 7.015 15.466 15.482 15.466 8.466 0 15.481-7.008 15.481-15.466 0-8.458-7.015-15.466-15.481-15.466-8.709 0-15.482 6.766-15.482 15.466zm5.564-5.8c-.484.725-1.451.967-2.177.483-.726-.483-1.21-1.45-.726-2.175.484-.724 1.452-.966 2.177-.483.726.483 1.21 1.45.726 2.175zm9.918-4.833c5.805 0 10.643 4.833 10.643 10.633 0 5.8-4.838 10.633-10.643 10.633-5.806 0-10.644-4.833-10.644-10.633 0-6.042 4.596-10.633 10.644-10.633zm-5.806.725c-.726.483-1.693 0-2.177-.725s-.242-1.692.484-2.175c.726-.483 1.693 0 2.177.725s.242 1.692-.484 2.175zm7.257-3.142c0 .967-.726 1.692-1.451 1.692-.726 0-1.452-.725-1.452-1.692 0-.966.726-1.691 1.452-1.691.725 0 1.451.725 1.451 1.691zm6.289 2.417c-.483.725-1.451 1.208-2.177.725-.725-.483-.967-1.45-.483-2.175.483-.725 1.451-1.208 2.177-.725.725.242.967 1.208.483 2.175zm4.355 5.316c-.726.484-1.936.242-2.178-.483-.483-.725 0-1.692.726-2.175.726-.483 1.693-.242 2.177.483.242.726 0 1.692-.725 2.175zm.967 6.767c-.967 0-1.693-.725-1.693-1.45s.726-1.45 1.693-1.45c.968 0 1.693.725 1.693 1.45s-.725 1.45-1.693 1.45zm-3.386 4.108c.483-.725 1.451-.966 2.177-.483.725.483 1.209 1.45.725 2.175-.483.725-1.451.966-2.177.483-.725-.483-.967-1.45-.725-2.175zm-4.113 4.108c.726-.483 1.694 0 2.177.725.484.725.242 1.692-.483 2.175-.726.484-1.694 0-2.177-.725-.242-.725-.242-1.691.483-2.175zm-7.015 3.384c0-.967.726-1.692 1.452-1.692.725 0 1.451.725 1.451 1.692 0 .966-.726 1.691-1.451 1.691-.968 0-1.452-.725-1.452-1.691zm-6.531-2.417c.484-.725 1.451-1.208 2.177-.725s.968 1.45.484 2.175c-.484.725-1.451 1.208-2.177.725s-.968-1.45-.484-2.175zM207 107.662c.726-.484 1.693-.242 2.177.483s0 1.691-.726 2.175c-.725.483-1.693.241-2.177-.483-.484-.967-.242-1.692.726-2.175zm-2.661-5.317c0-.725.726-1.45 1.693-1.45.968 0 1.694.725 1.694 1.45s-.726 1.45-1.694 1.45c-.967 0-1.693-.725-1.693-1.45z" fill="#E1D7EF"/><path d="M47.348 102.345a13 13 0 0013.062 13.049 13.001 13.001 0 0013.063-13.049c0-7.25-5.806-13.05-13.063-13.05-7.257-.242-13.062 5.8-13.062 13.05z" fill="#9891A1"/><path d="M35.98 102.345c0 13.533 11.127 24.408 24.673 24.408 13.546 0 24.432-11.117 24.432-24.65 0-13.533-11.128-24.408-24.674-24.408S35.98 88.812 35.98 102.345zm9.434 0c0-8.458 6.773-15.225 14.997-15.225 8.466 0 14.998 6.767 15.24 14.983 0 8.217-6.774 14.983-14.998 15.225-8.466 0-15.24-6.767-15.24-14.983z" fill="#9891A1"/><path d="M42.993 102.345c0 9.666 7.74 17.399 17.417 17.399 9.676 0 17.416-7.733 17.416-17.399 0-9.667-7.74-17.4-17.416-17.4-9.434 0-17.417 7.733-17.417 17.4zm1.935 0c0-8.459 7.015-15.467 15.482-15.467 8.466 0 15.481 7.008 15.481 15.467 0 8.458-7.015 15.466-15.481 15.466-8.467 0-15.482-7.008-15.482-15.466z" fill="#fff"/><path d="M49.766 102.344c0 5.8 4.837 10.634 10.643 10.634 5.806 0 10.643-4.834 10.643-10.634 0-5.8-4.838-10.633-10.643-10.633-5.806 0-10.643 4.592-10.643 10.633zm4.112 0c0-3.624 2.903-6.766 6.773-6.766 3.628 0 6.773 2.9 6.773 6.766 0 3.625-2.903 6.767-6.773 6.767-3.87-.242-6.773-3.142-6.773-6.767z" fill="#fff"/><path d="M53.878 102.345c0 3.624 2.903 6.766 6.773 6.766 3.628 0 6.773-2.9 6.773-6.766 0-3.625-2.903-6.767-6.773-6.767-3.87 0-6.773 2.9-6.773 6.767zm4.112-2.659c-.484.484-.967.484-1.451 0-.484-.483-.484-.966 0-1.45.484-.483.967-.483 1.451 0 .242.484.242 1.209 0 1.45zm3.145-1.45c0 .242-.242.484-.484.484s-.484-.242-.484-.484c0-.241.242-.483.484-.483.242-.242.484 0 .484.483zm3.145 1.45c-.484.484-.968.484-1.452 0-.484-.483-.484-.966 0-1.45.484-.483.968-.483 1.451 0 .484.484.484 1.209 0 1.45zm.242 3.142c-.242 0-.484-.242-.484-.483 0-.242.242-.484.484-.484.241 0 .483.242.483.484.242.241 0 .483-.483.483zm-1.452 1.933c.484-.483.968-.483 1.452 0 .483.483.483.967 0 1.45-.484.483-.968.483-1.452 0s-.484-.967 0-1.45zm-3.145 1.692c0-.242.242-.484.484-.484s.484.242.484.484c0 .241-.242.483-.484.483s-.484-.242-.484-.483zm-1.935-4.108c0-1.45 1.21-2.659 2.661-2.659s2.661 1.209 2.661 2.659c0 1.449-1.21 2.658-2.419 2.658-1.935-.242-2.903-1.209-2.903-2.658zm-1.451 2.416c.484-.483.967-.483 1.451 0 .484.483.484.967 0 1.45s-.967.483-1.451 0a1.54 1.54 0 010-1.45zm-.726-2.416c0-.242.242-.484.484-.484s.484.242.484.484c0 .241-.242.483-.484.483s-.484-.242-.484-.483z" fill="#E1D7EF"/><path d="M44.929 102.343c0 8.458 7.015 15.467 15.481 15.467 8.466 0 15.481-7.009 15.481-15.467S68.876 86.877 60.41 86.877c-8.466 0-15.481 6.767-15.481 15.466zm5.805-5.8c-.484.725-1.451.967-2.177.484-.726-.484-1.21-1.45-.726-2.175.484-.725 1.452-.967 2.177-.484.726.484.968 1.45.726 2.175zm9.676-4.833c5.806 0 10.644 4.833 10.644 10.633 0 5.8-4.838 10.633-10.644 10.633-5.805 0-10.643-4.833-10.643-10.633 0-6.041 4.837-10.633 10.643-10.633zm-5.563.725c-.726.483-1.694 0-2.178-.725-.483-.725-.241-1.691.484-2.175.726-.483 1.694 0 2.177.725.242.725.242 1.692-.483 2.175zm7.014-3.141c0 .966-.725 1.691-1.451 1.691-.726 0-1.451-.725-1.451-1.691 0-.967.725-1.692 1.451-1.692.968 0 1.451.725 1.451 1.692zm6.532 2.416c-.484.725-1.452 1.209-2.177.725-.726-.483-.968-1.45-.484-2.175.484-.725 1.451-1.208 2.177-.725.725.242.967 1.209.484 2.175zm4.112 5.317c-.726.483-1.693.241-2.177-.484s0-1.691.725-2.175c.726-.483 1.694-.241 2.178.484.483.725.241 1.691-.726 2.175zm.968 6.766c-.968 0-1.694-.725-1.694-1.45s.726-1.45 1.694-1.45c.967 0 1.693.725 1.693 1.45s-.726 1.45-1.694 1.45zm-3.145 4.108c.484-.724 1.451-.966 2.177-.483.726.484 1.21 1.45.726 2.175-.484.725-1.452.967-2.177.483-.726-.483-1.21-1.45-.726-2.175zm-4.112 4.109c.725-.484 1.693 0 2.177.725.483.725.242 1.691-.484 2.175-.726.483-1.693 0-2.177-.725s-.242-1.692.484-2.175zm-7.257 3.383c0-.967.725-1.692 1.451-1.692.726 0 1.451.725 1.451 1.692s-.725 1.692-1.451 1.692c-.726 0-1.451-.725-1.451-1.692zm-6.29-2.417c.484-.725 1.452-1.208 2.178-.725.725.484.967 1.45.483 2.175-.483.725-1.451 1.209-2.177.725-.725-.483-.967-1.45-.484-2.175zm-4.354-5.316c.726-.484 1.694-.242 2.177.483.484.725 0 1.692-.725 2.175-.726.483-1.694.242-2.177-.483-.242-.967 0-1.692.725-2.175zm-2.66-5.317c0-.725.725-1.45 1.693-1.45.967 0 1.693.725 1.693 1.45s-.726 1.45-1.693 1.45c-.968 0-1.694-.725-1.694-1.45zm206.096-1.931h11.611c3.145 0 5.563-2.417 5.563-5.558 0-3.142-2.418-5.8-5.563-5.8h-11.611v11.358zm-239.719 0h11.611V89.054h-11.61c-3.145 0-5.564 2.416-5.564 5.558 0 3.383 2.419 5.8 5.563 5.8z" fill="#E1D7EF"/><path d="M190.067 53.046c.968 2.659 3.145.725 2.177-1.45l-3.386-6.525-1.21 3.384 2.419 4.591z" fill="#AFA7BA"/><path d="M185.229 55.22c1.694 0 3.145-1.207 3.387-2.9l1.209-9.907c.484-3.867-2.902-4.35-2.902-4.35l-1.694 17.158z" fill="#C4BCD0"/></svg>