<svg width="247" height="66" fill="none" xmlns="http://www.w3.org/2000/svg"><path d="M3.973 39.566h.484c.484 0 .968-.724.968-1.691l.725-5.8c0-.967-.242-1.933-.725-2.175h-.242c-.484 0-.968.725-.968 1.692l-.726 5.8c-.241 1.208 0 2.174.484 2.174z" fill="#C1B8CD"/><path d="M241.997 41.5l1.693-.242c.968 0 1.936-.967 1.936-2.175l.725-7.975c0-1.208-.483-2.175-1.693-2.416l-.968-.242-1.693 13.05z" fill="#D0C7DD"/><path d="M241.272 41.983l2.419-.242 1.452-13.533-2.903-.242-.968 14.017z" fill="#9C95A6"/><path d="M241.756 49.958h2.661c.726 0 1.209-.484 1.451-1.209l.726-4.35c.242-.725-.484-1.691-1.451-1.691h-3.629l-.725 5.8c-.242.725.241 1.45.967 1.45z" fill="#E1D7EF"/><path d="M12.68 50.683l25.882 1.691h1.452l3.144.242h178.036l14.998-1.933c3.144-.484 5.805-2.9 6.289-6.283l1.693-15.95c.484-4.108-2.419-4.833-6.531-5.075l-67.489-3.383c-2.419-.242-4.838-.967-7.015-2.659L143.304 2.11c-1.452-.967-2.903-1.692-4.596-1.692H80.411c-5.564 0-11.128 2.175-15.24 6.283l-8.708 8.459c-.968.966-2.42 1.691-3.87 1.933l-43.3 8.941c-2.177.483-3.629 2.175-3.87 4.35l-1.21 9.908c-.484 5.558 3.145 10.15 8.466 10.392z" fill="#A69FB0"/><path opacity=".2" d="M173.784 22.65l63.377 3.141c1.451 0 5.322.242 4.838 3.383l-1.693 15.467c.967-17.642-.968-16.675-8.467-17.158l-58.055-4.834zM6.148 41.016l1.21-9.908c.242-1.208.968-2.175 2.419-2.658l42.816-9.425c.241 0 .725.242.725.242-41.848 9.908-43.783 9.183-47.17 21.75z" fill="#EDE3FC"/><path d="M138.225 3.075c1.209 0 2.419.483 3.386 1.208l19.836 15.225c.967.725 1.693 1.208 2.661 1.692l2.66 10.875-2.66 19.09h-52.734l1.935-19.816-1.935-28.032h26.851v-.242z" fill="#9C95A6"/><path d="M113.794 5.009h24.673c.726 0 1.694.241 2.177.725l19.836 15.224c.242 0 .242.242.484.242h-45.961l-1.209-16.191z" fill="#DDD3EA"/><path d="M74.365 5.975c1.209-1.933 3.386-2.9 5.805-2.9h29.753l1.935 28.033-1.935 19.816H78.719c-.726-8.458-6.773-15.466-14.756-18.124v-9.425c0-1.692.484-3.142 1.451-4.35l8.95-13.05z" fill="#9C95A6"/><path d="M75.814 7.184c.968-1.45 2.42-2.175 4.113-2.175h27.818l1.209 16.433H65.897l9.917-14.258z" fill="#DDD3EA"/><path d="M124.919 24.1h-8.708V27h8.708v-2.9zm-50.314 0h-8.709V27h8.709v-2.9zM4.213 40.774v1.209h5.322c2.66 0 4.838 2.175 4.838 4.833l-11.611-.483c-1.21 0-2.66-1.209-2.419-2.417v-.725c.242-1.45 1.21-2.417 2.661-2.417h1.21zm232.464 7.976h7.015c.725 0 1.209-.484 1.209-.967l.484-1.934c.242-.724-.484-1.691-1.209-1.691h-7.015c-.726 0-1.21.483-1.21.966l-.484 1.934c-.242.725.484 1.691 1.21 1.691z" fill="#E1D7EF"/><path d="M152.98 22.167l4.113 1.933.241-2.175-3.628-3.383-.726 3.625z" fill="#A69FB0"/><path d="M151.77 15.883h.242c.968.242 1.935.967 2.177 1.934l.484 2.175c.483 2.175-1.452 4.35-3.629 4.108h-.483l1.209-8.217z" fill="#A69FB0"/><path d="M181.524 52.858h35.559l-.967-5.558c-.726-3.625-2.903-6.283-5.806-7.975-1.451-.725-3.386-1.209-5.08-1.209h-10.643c-2.419 0-4.596.726-6.531 1.934-2.661 1.692-4.838 4.591-5.322 7.975l-1.21 4.833zm-143.203-.242h2.662l1.934.242h30.721L72.67 47.3c-.725-3.384-2.902-6.283-5.805-7.975-1.451-.725-3.386-1.209-5.322-1.209H50.9c-2.42 0-4.596.726-6.531 1.934-2.903 1.692-4.838 4.591-5.322 8.216l-.726 4.35z" fill="#A49DAE"/><path opacity=".75" d="M130.482 5.734l11.611 15.225h-9.192L121.29 5.734h9.192zm4.111 0l11.369 15.225h-2.902L131.69 5.734h2.903zm-44.023 0l11.37 15.225h-8.95L81.379 5.734h9.192zm4.116 0l11.369 15.225h-2.903L91.541 5.734h3.145z" fill="#fff"/><path opacity=".2" d="M.342 43.191v.725c0 1.208 1.21 2.417 2.419 2.417l2.66.241c1.452 2.417 4.113 4.109 7.016 4.109l25.883 1.691h1.45l3.146.242h178.036l14.997-1.933c1.693-.242 3.387-.967 4.354-2.417h.242c0 .725.484 1.208.968 1.208h2.661c.725 0 1.209-.483 1.451-1.208l.726-4.35v-.483L3.728 32.8l-.483 4.108c-.242 1.208.241 2.175.725 2.175h.242v.967h-.967c-1.452.725-2.661 1.69-2.903 3.14z" fill="#8E8796"/><path d="M189.506 49.957c0 5.317 4.354 9.667 9.676 9.667 5.321 0 9.676-4.35 9.676-9.667 0-5.316-4.355-9.666-9.676-9.666-5.322 0-9.676 4.35-9.676 9.666z" fill="#E1D7EF"/><path d="M183.942 49.958c0 .967 0 1.933.242 2.9 1.452 7.008 7.499 12.325 14.998 12.325s13.546-5.317 14.997-12.325c.242-.967.242-1.933.242-2.9 0-4.108-1.693-7.975-4.354-10.633-1.451-.725-3.386-1.209-5.08-1.209h-10.643c-2.419 0-4.596.726-6.531 1.934-2.419 2.658-3.871 6.283-3.871 9.908zm15.24 9.425c-4.112 0-7.741-2.659-8.95-6.525-.242-.967-.484-1.933-.484-2.9 0-5.075 4.112-9.425 9.434-9.425 5.08 0 9.434 4.108 9.434 9.425 0 .967-.242 1.933-.484 2.9-1.209 3.867-4.596 6.525-8.95 6.525z" fill="#9891A1"/><path d="M192.167 49.958c0 3.866 3.145 7.008 7.015 7.008 3.87 0 7.015-3.142 7.015-7.008 0-3.867-3.145-7.008-7.015-7.008-3.87 0-7.015 3.141-7.015 7.008z" fill="#fff"/><path d="M195.067 49.957a4.335 4.335 0 004.354 4.35 4.335 4.335 0 004.355-4.35 4.335 4.335 0 00-4.355-4.35c-2.418.242-4.354 2.175-4.354 4.35z" fill="#E1D7EF"/><path opacity=".5" d="M203.051 42.224c1.452.725 2.661 1.933 3.629 3.142l-7.257 4.35 3.628-7.492zm-3.87 7.734l-3.871 7.733c-1.451-.725-2.661-1.933-3.628-3.383l7.499-4.35z" fill="#fff"/><path d="M46.303 49.957c0 5.317 4.354 9.667 9.676 9.667 5.321 0 9.675-4.35 9.675-9.667 0-5.316-4.354-9.666-9.675-9.666-5.322 0-9.676 4.35-9.676 9.666z" fill="#E1D7EF"/><path d="M40.98 49.958c0 .967 0 1.933.242 2.658 1.21 7.008 7.5 12.567 14.998 12.567 7.499 0 13.546-5.317 14.997-12.325.242-.967.242-1.933.242-2.9 0-4.108-1.693-7.975-4.354-10.633-1.451-.725-3.386-1.209-5.322-1.209H51.14c-2.419 0-4.596.726-6.531 1.934-2.42 2.658-3.629 6.041-3.629 9.908zm15.24 9.425c-4.112 0-7.74-2.659-8.95-6.525-.242-.967-.484-1.933-.484-2.9 0-5.075 4.112-9.425 9.434-9.425 5.08 0 9.434 4.108 9.434 9.425 0 .967-.242 1.933-.484 2.9-1.21 3.867-4.838 6.525-8.95 6.525z" fill="#9891A1"/><path d="M48.964 49.958c0 3.866 3.145 7.008 7.015 7.008 3.87 0 7.015-3.142 7.015-7.008 0-3.867-3.145-7.008-7.015-7.008-3.87 0-7.015 3.141-7.015 7.008z" fill="#fff"/><path d="M51.866 49.957a4.334 4.334 0 004.354 4.35 4.334 4.334 0 004.355-4.35 4.334 4.334 0 00-4.355-4.35c-2.419.242-4.354 2.175-4.354 4.35z" fill="#E1D7EF"/><path opacity=".5" d="M59.848 42.224c1.452.725 2.661 1.933 3.629 3.142l-7.257 4.35 3.628-7.492zm-3.628 7.734l-3.87 7.733c-1.451-.725-2.66-1.933-3.628-3.383l7.498-4.35z" fill="#fff"/></svg>