<svg width="251" height="100" fill="none" xmlns="http://www.w3.org/2000/svg"><path d="M9.285 65.161l-6.047-1.208C1.06 63.47-.391 61.295.093 59.361l6.29-30.932c.483-2.175 2.419-3.625 4.596-3.142l6.047 1.209c2.177.483 3.628 2.658 3.145 4.591L13.88 62.02c-.242 2.175-2.419 3.625-4.596 3.141z" fill="#A39BAD"/><path d="M9.529 63.953l-.484 6.283c.484 2.175 1.451 3.867 2.903 5.558.967 1.209 2.177 2.175 3.628 2.659.484.241.968.483 1.451.483l13.063 5.558h206.338l5.321-.725c2.903-.483 5.564-2.417 6.29-5.317 0-.241.242-.483.242-.724l.241-.725.242-.725 1.452-7.25.484-2.9c0-.242 0-.725.241-.967v-1.45c0-.483-.241-.966-.241-1.208 0 0 0-.242-.242-.242l-5.08-13.291c-.242-.725-.484-1.209-.726-1.692-.242-.241-.484-.725-.726-.966-.483-.484-.967-1.209-1.451-1.45-.242-.242-.484-.484-.967-.725 0 0-.242 0-.242-.242-.242-.242-.484-.242-.726-.483-.242 0-.484-.242-.726-.242s-.242-.242-.484-.242c-.483-.241-.725-.241-1.209-.483L182.485 28.67c-.968-.483-1.935-.966-2.903-1.691L155.634 6.437c-3.386-3.141-5.805-3.624-11.127-4.591-30.479-2.417-67.49-2.175-98.21 0-6.29 0-12.095 3.141-15.24 8.458 0 0-15.723 26.1-15.723 26.341l-.242 1.45-4.596 20.058v.242c-.242.725-.242 1.45-.242 2.175-.967 1.208-.967 2.175-.725 3.383z" fill="#C1B9CD"/><path d="M115.236 72.894V6.196c0-1.45 1.21-2.417 2.419-2.417 8.95.242 17.659.725 25.641 1.45 5.322.725 6.773 1.208 9.434 3.625l20.078 17.158c2.419 2.175 3.87 5.075 3.87 8.216v38.425c0 2.175-1.693 3.866-3.87 3.866h-53.701c-2.177 0-3.871-1.691-3.871-3.625z" fill="#CCC3D9"/><path d="M117.896 7.646V30.12c0 .967.726 1.692 1.694 1.692l52.491 1.208c.968 0 1.694-.966 1.21-1.933-.484-.967-1.21-1.933-2.177-2.9L151.036 11.03c-1.935-1.933-2.902-2.175-7.982-2.9-7.499-.483-15.482-.966-23.948-1.208-.726-.483-1.21 0-1.21.725z" fill="#DDD3EA"/><path d="M238.118 52.112l3.145 7.491c.484 1.45 2.177 2.417 4.112 2.9.484 0 .968.242 1.452.242h2.661c.241 0 .483 0 .725-.242 0 0 0-.242-.242-.242l-5.079-13.29a11.665 11.665 0 00-.726-1.692c-.242-.242-.484-.726-.726-.967h-.726c-1.935 0-3.386.725-4.354 1.933-.725.967-.725 2.417-.242 3.867z" fill="#A39BAD"/><path d="M239.085 51.628l3.145 7.492c.484 1.208 1.935 1.933 3.387 2.416.483 0 .725.242 1.209.242h2.661c.968 0 .968-1.933-.242-5.558-.967-2.9-1.935-4.592-3.145-7.25-.483-.967-1.451-1.692-2.419-1.692h-.967c-3.145 0-4.596 1.934-3.629 4.35z" fill="#D0C7DD"/><path d="M15.576 78.452c.484.242.968.484 1.452.484l13.062 5.558h206.338l5.321-.725c2.903-.484 5.564-2.417 6.29-5.317H15.576z" fill="#A39BAD"/><path d="M231.105 84.494h5.322l5.322-.725c2.903-.483 5.564-2.416 6.289-5.316 0-.242.242-.484.242-.725l.242-.725.242-.725 1.451-7.25.484-2.9c0-.242 0-.725.242-.967h-6.047c-4.838 0-8.951 3.142-10.16 7.734l-3.629 11.6zM8.8 68.787c.243 3.866.243 5.074 2.662 7.25 2.902 2.658 18.384 8.457 18.384 8.457l-1.694-14.74c-1.45-5.317-6.047-8.942-11.61-8.942H9.284c0 .966-.484 7.975-.484 7.975z" fill="#A39BAD"/><path d="M242.958 72.17c-.242 1.45.242 2.658 1.21 2.658.967 0 1.935-1.209 2.177-2.659.242-1.45-.242-2.658-1.21-2.658-.967-.242-1.935 1.208-2.177 2.658zM14.849 68.061c.242 2.175-.242 3.867-1.21 3.867-.967 0-1.935-1.692-2.177-3.867s.242-3.866 1.21-3.866c.967-.242 1.935 1.691 2.177 3.866z" fill="#D0C7DD"/><path d="M9.527 58.395h.726c1.21 0 2.177-.725 2.419-1.933L16.3 41.479c.242-.725 0-1.45-.483-2.175-.484-.484-1.21-.967-1.935-.967L9.527 58.395z" fill="#A39BAD"/><path d="M8.802 50.178l4.354.967-1.21 5.075c-.241.725-.725 1.208-1.45 1.208h-.968c-1.21 0-2.178-1.208-1.694-2.175l.968-5.075z" fill="#D0C7DD"/><path d="M11.22 40.753c.242-.725.967-1.45 1.693-1.45h1.21c.967 0 1.693.967 1.45 1.934l-2.418 9.908-4.354-.967 2.419-9.425zm162.797-9.425c.242 3.625-3.387 3.625-6.29 3.867h-.967l3.144-13.291c2.177.966 3.871 6.283 4.113 9.424z" fill="#C1B9CD"/><path opacity=".75" d="M120.074 7.887l17.659 22.958 15.723.242-17.175-22.475a177.772 177.772 0 00-16.207-.725zm18.143.725l16.933 22.475h5.079l-16.69-22.233h-.726c-1.452 0-2.903 0-4.596-.242z" fill="#fff"/><path d="M180.307 84.494h49.347l-.484-6.042-.484-3.867c-.726-8.216-7.741-14.5-15.965-14.5h-15.965c-8.467 0-15.24 6.526-15.966 14.742l-.241 3.625-.242 6.042z" fill="#A39BAD"/><path d="M73.872 3.538c8.708-.484 13.062-.242 21.287-.242 4.838 0 9.676 0 14.514.242 1.451 0 2.902 1.208 2.902 2.9V73.86c0 1.45-1.209 2.658-2.66 2.658H88.628c-1.21 0-2.42-.967-2.42-2.175v-.241c-.967-10.15-9.675-18.125-19.835-18.125h-3.145c-3.87 0-7.256-3.142-7.256-7.25V34.47c-.242 0 8.708-30.45 17.9-30.932z" fill="#CCC3D9"/><path d="M45.572 30.12l-19.11-.483c-1.21 0-1.935-1.208-1.21-2.417 2.903-4.833 6.048-10.633 9.192-15.224 3.629-5.558 6.532-7.008 21.771-7.008 1.21 0 1.935 1.208 1.452 2.174-2.661 6.042-7.5 14.983-10.16 21.75-.726.725-1.21 1.208-1.935 1.208zm16.205.242l46.686.967c.726 0 1.451-.725 1.451-1.45V7.646c0-1.208-.241-1.692-1.451-1.692-3.145 0-5.08 0-8.224-.241H83.547c-3.144 0-6.047 0-9.433.241-.484 0-1.21.242-1.694.725-3.628 2.417-8.224 11.6-11.852 21.75-.242.966.241 1.933 1.209 1.933z" fill="#DDD3EA"/><path d="M33.717 84.494h49.347l-.484-6.042-.484-3.867c-.726-8.216-7.74-14.5-15.965-14.5H50.166c-8.467 0-15.482 6.526-15.965 14.742l-.242 3.625-.242 6.042z" fill="#A39BAD"/><path d="M119.347 38.578l8.95.242c.484 0 .726-.242.726-.725v-1.691c0-.484-.242-.725-.726-.725l-8.95-.242c-.484 0-.726.242-.726.725v1.691c0 .484.242.725.726.725zm-57.084-1.45l8.95.242c.484 0 .726-.242.726-.725v-1.692c0-.483-.242-.725-.726-.725l-8.95-.241c-.484 0-.726.241-.726.725v1.691c0 .484.484.725.726.725z" fill="#fff"/><path opacity=".15" d="M1.061 54.77l248.186 17.883-.726 3.625-.242.725-.242.725c0 .241 0 .483-.241.725-.726 2.9-3.387 5.075-6.29 5.316l-5.321.725H30.089s-15.724-5.8-18.384-8.458c-2.42-2.175-2.42-3.383-2.661-7.25 0 0 0-1.692.242-3.625L3.48 63.953C1.303 63.47-.148 61.295.335 59.36l.726-4.591z" fill="#8E8796"/><path d="M185.87 78.21v1.209h-.968s-.484.242-.726.725l-.242.242c0 .725.242 1.208.242 1.933v.242l.242-.242.484-.483 1.451-.242c0 .483.242.725.242 1.208l-.725.242h-.242l-.242.242c0 .241-.242.241-.484.483l-.242.241.726 2.175s0-.241.242-.241c.242-.242.242-.484.242-.484l1.209-.483c.242.242.242.725.484.967l-.968.483s-.242.483-.484.725c0 .242 0 .242-.241.242.241.725.725 1.208 1.209 1.933v-.483c0-.242.242-.242.242-.242l1.209-.725c.242.242.484.725.726.967l-.726.483s-.241.483-.241.967v.241c.483.484.967 1.209 1.451 1.692v-.242c0-.241.242-.483.242-.483l.967-.967.726.725-.726.725s0 .484-.242.967v.242c.484.483 1.21.966 1.694 1.45v-.725l.725-.967c.242.242.484.483.968.725l-.484.725v1.208c.726.484 1.21.725 1.935 1.209v-.725l.726-1.209c.242.242.726.242.968.484l-.484.966v1.209l2.177.725v-.242c0-.242-.242-.483-.242-.483l.484-1.209c.242 0 .726.242.967.242l-.241.967s.241.483.241.966v.242c.726.242 1.452.242 2.178.483v-.242c-.242-.241-.242-.483-.242-.483l.242-1.45c.483 0 .725 0 1.209.242v.966l.484.967c0 .242 0 .242.242.242h2.177s0-.242-.242-.242c-.242-.241-.242-.483-.242-.483v-1.45h1.209v.966s.242.484.726.725l.242.242c.726 0 1.451-.242 2.177-.483 0 0-.242 0-.242-.242l-.484-.483-.241-1.45c.483 0 .725-.242 1.209-.242l.242.967.242.242c.242 0 .242.241.484.483l.241.242 2.178-.725s-.242 0-.242-.242c-.242-.242-.484-.242-.484-.242l-.484-1.208c.242-.242.726-.242.968-.483l.483.966s.484.242.726.484c.242 0 .242 0 .242.241.726-.241 1.21-.725 1.935-1.208h-.484c-.241 0-.241-.242-.241-.242l-.726-1.208c.242-.242.726-.483.967-.725l.484.725s.484.242.968.242h.242c.483-.242.725-.484.967-.967.242-.242.484-.242.726-.483h-.242c-.242 0-.484-.242-.484-.242l-.967-.967.725-.725.726.725s.484 0 .968.242h.242c.483-.483.967-1.208 1.451-1.692h-.726l-1.693-1.208c.242-.242.484-.483.726-.966l.725.483h1.21c.484-.725.725-1.209 1.209-1.933h-.725l-1.21-.725c.242-.242.242-.726.484-.967l.968.483h1.209l.726-2.175h-.242c-.242 0-.484.242-.484.242l-1.209-.484c0-.241.241-.724.241-.966l.968.242s.484-.242.968-.242h.241c.242-.725.242-1.45.484-2.175h-.242c-.242.242-.483.242-.483.242l-1.452-.242c0-.483 0-.725.242-1.208h.968l.967-.484c.242 0 .242 0 .242-.241v-2.175s-.242 0-.242.241c-.242.242-.484.242-.484.242h-1.451v-1.208h.968s.483-.242.725-.725l.242-.242c0-.725-.242-1.45-.484-2.175 0 0 0 .242-.241.242l-.484.483-1.452.242c0-.483-.241-.725-.241-1.209l.967-.241.242-.242c0-.242.242-.242.484-.483l.242-.242-.726-2.175s0 .242-.242.242c-.242.242-.242.483-.242.483l-1.209.483c-.242-.241-.242-.724-.484-.966l.968-.484s.241-.483.483-.724c0-.242 0-.242.242-.242-.242-.725-.725-1.208-1.209-1.933v.483c0 .242-.242.242-.242.242l-1.21.725c-.242-.242-.483-.725-.725-.967l.725-.483s.242-.484.242-.967v-.242c-.484-.483-.967-1.208-1.451-1.691v.241c0 .242-.242.484-.242.484l-.968.966-.725-.725.725-.725s0-.483.242-.966v-.242c-.484-.483-1.209-.967-1.693-1.45v.725l-.726.967c-.242-.242-.483-.484-.967-.725l.484-.725v-1.209c-.726-.483-1.21-.725-1.936-1.208v.725l-.725 1.208c-.242-.241-.726-.241-.968-.483l.484-.967v-1.208l-2.177-.725v.242c0 .241.242.483.242.483l-.484 1.208c-.242 0-.726-.241-.968-.241l.242-.967s-.242-.483-.242-.967v-.241c-.725-.242-1.451-.242-2.177-.483v.241c.242.242.242.483.242.483l-.242 1.45c-.484 0-.725 0-1.209-.241v-.967l-.484-.966c0-.242 0-.242-.242-.242h-2.177s0 .242.242.242c.242.241.242.483.242.483v1.45h-1.21v-.967s-.242-.483-.725-.725l-.242-.241c-.726 0-1.452.241-2.177.483 0 0 .242 0 .242.241l.483.484.242 1.45c-.484 0-.725.241-1.209.241l-.242-.966-.242-.242c-.242 0-.242-.242-.484-.483l-.242-.242-2.177.725s.242 0 .242.242c.242.241.484.241.484.241l.484 1.209c-.242.241-.726.241-.968.483l-.484-.967s-.483-.241-.725-.483c-.242 0-.242 0-.242-.242-.726.242-1.21.725-1.935 1.209h.483c.242 0 .242.241.242.241l.726 1.209c-.242.241-.726.483-.968.725l-.483-.725s-.484-.242-.968-.242h-.242c-.484.483-.968.725-1.451 1.208l-.242.242h.242c.242 0 .483.242.483.242l.968.966-.726.725-.725-.725s-.484 0-.968-.241h-.242c-.484.483-.967 1.208-1.451 1.691h.726l.967.725c-.242.242-.484.484-.726.967l-.725-.483h-1.21c-.484.725-.725 1.208-1.209 1.933h.725l1.21.725c-.242.241-.242.725-.484.966l-.967-.483h-1.21l-.726 2.175h.242c.242 0 .484-.241.484-.241l1.21.483c0 .242-.242.725-.242.966l-.968-.241s-.484.241-.968.241h-.241c-.242.725-.242 1.45-.484 2.175h.242c.242-.241.483-.241.483-.241l2.419.966c0 .484 0 .725-.241 1.209h-.968l-.968.483c-.242 0-.242 0-.242.242v2.175s.242 0 .242-.242c.242-.242.484-.242.484-.242l1.452-.241z" fill="#9891A1"/><path d="M220.701 66.611c.242.242.484.725.726.967l1.209-.725s0-.242.242-.242v-.242c-.242-.483-.484-.725-.967-1.208-.242.483-.242.967-.242.967l-.968.483zm-32.414 10.633c.242-9.183 7.983-16.433 17.175-16.433 9.192.242 16.449 7.975 16.449 17.158-.242 9.183-7.983 16.433-17.175 16.433-9.434-.242-16.691-7.975-16.449-17.158z" fill="#A49DAE"/><path d="M186.353 77.244c.242-10.15 8.708-18.366 19.11-18.124 10.159.241 18.384 8.7 18.142 19.09-.242 10.15-8.708 18.367-19.11 18.126-10.16-.484-18.384-8.942-18.142-19.092zm.242 0c-.242 10.15 7.74 18.608 17.9 18.85 10.16.242 18.626-7.733 18.868-17.883.242-10.15-7.741-18.608-17.9-18.85-10.16-.483-18.626 7.733-18.868 17.883z" fill="#A49DAE"/><path d="M217.797 91.744l.967.966s.242 0 .484.242l.968-.966c-.484 0-.968-.242-.968-.242l-.725-.725-.726.725zm2.18-2.417l.967.725h.484c.242-.483.484-.725.968-1.208h-.968l-.726-.484c-.242.484-.484.725-.725.967zm-7.741 6.042c.242-.242.726-.242.968-.484l.484.967s.484.242.725.483l-1.451.725c-.242-.242-.484-.241-.484-.241l-.242-1.45zm3.628-.484l-.725-1.208c.242-.242.725-.483.967-.725l.484.725s.484.242.968.242c-.484.242-.726.483-1.21.725h-.242c0 .483-.242.241-.242.241zm6.048-8.216l1.21.725h.483c.242-.483.484-.967.726-1.208h-.968l-.967-.484c-.242.242-.242.484-.484.967zm2.176-10.875v1.208h1.451s.242-.242.484-.242v-1.45c-.484.242-.726.725-.726.725l-1.209-.241zM209.09 96.335c.484 0 .726-.242 1.209-.242l.242.967.242.242c.242 0 .242.241.484.483-.484.242-.968.242-1.451.483l-.484-.483-.242-1.45zm14.031-12.808l1.21.484s.241 0 .483-.242c.242-.483.242-.967.484-1.45-.484.242-.967.242-.967.242l-.968-.242c0 .483 0 .967-.242 1.208zm.24-10.874c0 .241.242.725.242 1.208l1.452-.242.483-.483c0-.483-.242-.967-.483-1.45l-.484.483-.242.242-.968.242zm-.966-3.143c.241.242.241.726.483.967l1.21-.483s.242-.242.242-.483c-.242-.484-.484-.967-.726-1.209-.242.484-.484.725-.484.725l-.725.484zm1.451 10.875l1.451.242s.242 0 .484-.242c0-.483 0-.966.242-1.45l-.968.484h-.967c0 .241 0 .483-.242.966zm-36.284 7.975l1.21-.725c.242.242.484.725.726.967l-.726.483s-.242.484-.242.967c-.242-.484-.484-.725-.726-1.208v-.242c-.241 0-.242-.242-.242-.242zm-.244-3.624c.242.241.242.724.484.966l-.968.483s-.241.484-.483.725l-.726-1.45c.242-.241.242-.483.242-.483l1.451-.242zm18.385 11.841h1.21v.967s.242.483.725.725h-1.451c-.242-.242-.242-.484-.242-.484l-.242-1.208zm-14.755-6.284l.725.725-.725.725s0 .483-.242.967l-.968-.967c0-.242.242-.483.242-.483l.968-.967zm-6.29-12.083h1.451v1.21h-.967s-.484.24-.726.724v-1.45c0-.242.242-.483.242-.483zm1.693 3.384c0 .483.242.725.242 1.208l-.968.242-.241.242c0 .241-.242.241-.484.483-.242-.484-.242-.967-.484-1.45l.484-.484 1.451-.241zm12.822 14.258c.242 0 .726.242.968.242l-.242.966s.242.483.242.967c-.484 0-.968-.242-1.452-.484 0-.241-.242-.483-.242-.483l.726-1.208zm3.143.725c.484 0 .726 0 1.21.242v.966l.484.967c-.484 0-.968 0-1.452-.242-.242-.241-.242-.483-.242-.483v-1.45zm-6.29-2.176c.242.242.726.242.968.484l-.484.966v.967c-.484-.242-.967-.483-1.209-.725v-.483l.725-1.209zm-2.658-1.691c.242.242.484.484.968.725l-.484.725v.967c-.484-.242-.726-.483-1.209-.967v-.483l.725-.967zm-.968-31.899c.484.242.968.242.968.242l.484.725c.242-.242.725-.484.967-.725l-.725-1.209s-.242 0-.242-.241h-.242c-.242.725-.726.966-1.21 1.208zm14.272-3.141v.966c.483 0 .725 0 1.209.242l.242-1.45s0-.242-.242-.483c-.484 0-.968 0-1.451-.242 0 .483.242.967.242.967zm6.289 2.658c.242.241.726.241.968.483l.725-1.208v-.483c-.484-.242-.967-.484-1.209-.725v.966l-.484.967zm-2.903-2.175l-.242.967c.484 0 .726.242.968.242l.483-1.209s0-.242-.241-.483c-.484-.242-.968-.242-1.452-.483.484.483.484.966.484.966zm-11.128-.483l.483.483.242.242.242.966c.242 0 .726-.241 1.21-.241l-.242-1.45-.484-.483c-.484.241-.968.241-1.451.483zm-8.949 8.216c-.241.242-.483.483-.725.967l-.726-.484h-.968c.242-.483.484-.725.968-1.208h.484l.967.725zm-3.146 5.799c0 .242-.242.725-.242.967l-.967-.242s-.484.242-.968.242c0-.483.242-.966.484-1.45.242 0 .484-.242.484-.242l1.209.725zm15.722-14.74c.242.483.725.725.725.725v.966h1.21v-1.45s-.242-.241-.242-.483c-.726 0-1.21 0-1.693.242zm-7.012 1.933c.484.242.726.483.726.483l.483.967c.242-.242.726-.242.968-.483l-.484-1.209s-.242-.241-.484-.241c-.241 0-.725.241-1.209.483zm-7.257 9.666c-.242.242-.242.725-.484.967l-.967-.483h-.968c.242-.484.484-.967.726-1.209h.484l1.209.725zm-2.177 6.284c0 .483 0 .725-.242 1.208h-.968l-.967.483c0-.483 0-.966.241-1.45.242-.241.484-.241.484-.241h1.452zm29.752-12.808c.242.241.726.483.968.725l.726-.967v-.483c-.484-.242-.726-.484-1.21-.967v.967l-.484.725zm-23.464 1.45l-.725.725-.726-.725s-.484 0-.968-.242l.968-.967c.242 0 .484.242.484.242l.967.967zm26.126.483l.726.725.968-.967s0-.241.242-.483l-.968-.967c0 .484-.242.967-.242.967l-.726.725z" fill="#A49DAE"/><path opacity=".1" d="M218.525 63.953l.726.725.968-.967s0-.241.242-.483l-.968-.967c0 .484-.242.967-.242.967l-.726.725z" fill="#9892A2"/><path opacity=".15" d="M184.657 82.319s-.241 0 0 0c-.241 0-.241 0 0 0-.241-.241-.241-.241 0 0z" fill="#9B94A4"/><path d="M189.254 77.485c0 8.7 7.015 15.708 15.723 15.708 8.708 0 15.723-7.008 15.723-15.708s-7.015-15.707-15.723-15.707c-8.708 0-15.723 7.008-15.723 15.707z" fill="#FEFEFE"/><path d="M191.916 77.486c0 7.25 5.806 13.05 13.062 13.05 7.257 0 13.063-5.8 13.063-13.05 0-7.25-5.806-13.05-13.063-13.05-7.015.242-13.062 6.042-13.062 13.05z" fill="#A49DAE"/><path d="M204.254 79.66l1.451-4.35-13.546-3.383-.725 2.659 12.82 5.075z" fill="#E1D7EF"/><path d="M206.916 78.936l-3.628-2.659-7.741 11.6 2.419 1.933 8.95-10.874z" fill="#E1D7EF"/><path d="M206.916 76.277l-3.629 2.659 8.708 10.874 2.419-1.933-7.498-11.6z" fill="#E1D7EF"/><path d="M204.254 75.311l1.451 4.35 13.063-5.075-.968-2.658-13.546 3.383z" fill="#E1D7EF"/><path d="M202.801 77.486h4.596l-.968-13.775h-2.903l-.725 13.775z" fill="#E1D7EF"/><path d="M204.979 82.32a4.835 4.835 0 004.837-4.834 4.835 4.835 0 00-4.837-4.833 4.836 4.836 0 00-4.838 4.833 4.836 4.836 0 004.838 4.833z" fill="#FEFEFE"/><path d="M39.281 78.21v1.209h-.968s-.483.242-.725.725l-.242.242c0 .725.242 1.208.242 1.933v.242l.242-.242.483-.483 1.452-.242c0 .483.242.725.242 1.208l-.726.242h-.242l-.242.242c0 .241-.242.241-.483.483l-.242.242.725 2.175s0-.242.242-.242c.242-.242.242-.483.242-.483l1.21-.484c.242.242.242.725.483.967l-.967.483s-.242.483-.484.725c0 .242 0 .242-.242.242.242.725.726 1.208 1.21 1.933v-.483c0-.242.242-.242.242-.242l1.209-.725c.242.242.484.725.726.967l-.726.483s-.242.484-.242.967v.241c.484.484.968 1.209 1.451 1.692v-.242c0-.241.242-.483.242-.483l.968-.967.726.725-.726.725s0 .484-.242.967v.242c.484.483 1.21.966 1.693 1.45v-.725l.726-.967c.242.242.484.483.968.725l-.484.725v1.208c.726.484 1.21.725 1.935 1.209v-.725l.726-1.209c.242.242.725.242.967.484l-.484.966v1.209l2.178.725v-.242c0-.242-.242-.483-.242-.483l.483-1.209c.242 0 .726.242.968.242l-.242.967s.242.483.242.966v.242c.726.242 1.451.242 2.177.483v-.241c-.242-.242-.242-.484-.242-.484l.242-1.45c.484 0 .726 0 1.21.242v.967l.483.966c0 .242 0 .242.242.242h2.177s0-.242-.242-.242c-.242-.241-.242-.483-.242-.483v-1.45h1.21v.967s.242.483.726.725l.242.241c.725 0 1.45-.241 2.177-.483 0 0-.242 0-.242-.242l-.484-.483-.242-1.45c.484 0 .726-.242 1.21-.242l.241.967.242.242c.242 0 .242.241.484.483l.242.242 2.177-.725s-.242 0-.242-.242c-.242-.242-.484-.242-.484-.242l-.483-1.208c.242-.242.725-.242.967-.483l.484.966s.484.242.726.484c.242 0 .242 0 .242.241.725-.241 1.209-.725 1.935-1.208h-.484c-.242 0-.242-.242-.242-.242l-.726-1.208c.242-.242.726-.483.968-.725l.484.725s.483.242.967.242h.242c.484-.242.726-.484.968-.967.242-.242.484-.242.725-.483h-.241c-.242 0-.484-.242-.484-.242l-1.452-1.208.726-.725.726.725s.484 0 .967.241h.242c.484-.483.968-1.208 1.452-1.691h-.726l-1.21-.967c.242-.242.484-.483.726-.966l.726.483h1.209c.484-.725.726-1.209 1.21-1.933h-.726l-1.21-.725c.243-.242.243-.725.485-.967l.967.483h1.21l.725-2.175h-.242c-.242 0-.484.242-.484.242l-1.209-.483c0-.242.242-.725.242-.967l.968.242s.483-.242.967-.242h.242c.242-.725.242-1.45.484-2.175h-.242c-.242.242-.484.242-.484.242H77.26c0-.484 0-.725.242-1.209h.967l.968-.483c.242 0 .242 0 .242-.242v-2.174s-.242 0-.242.241c-.242.242-.484.242-.484.242h-1.451v-1.209h.967s.484-.241.726-.725l.242-.241c0-.725-.242-1.45-.484-2.175 0 0 0 .242-.242.242l-.484.483-1.451.242c0-.484-.242-.725-.242-1.209l.968-.241.242-.242c0-.242.242-.242.483-.483l.242-.242-.725-2.175s0 .242-.242.242c-.242.241-.242.483-.242.483l-1.21.483c-.242-.241-.242-.725-.483-.966l.967-.484s.242-.483.484-.725c0-.241 0-.241.242-.241-.242-.725-.726-1.209-1.21-1.934v.484c0 .241-.242.241-.242.241l-1.209 1.209c-.242-.242-.484-.725-.726-.967l.726-.483s.242-.484.242-.967v-.242c-.484-.483-.968-1.208-1.452-1.691v.241c0 .242-.241.484-.241.484l-.968.966-.726-.725.726-.725s0-.483.242-.966v-.242c-.484-.483-1.21-.967-1.693-1.45v.725l-.726.967c-.242-.242-.484-.483-.968-.725l.484-.725v-1.209c-.725-.483-1.21-.724-1.935-1.208v.725l-.726 1.209c-.242-.242-.725-.242-.967-.484l.484-.966v-1.209l-2.178-.725v.242c0 .242.242.483.242.483l-.483 1.209c-.242 0-.726-.242-.968-.242l.242-.967s-.242-.483-.242-.966v-.242c-.726-.242-1.451-.242-2.177-.483v.241c.242.242.242.484.242.484l-.242 1.45c-.484 0-.726 0-1.21-.242v-.967l-.483-.966c0-.242 0-.242-.242-.242h-2.177s0 .242.242.242c.241.241.241.483.241.483v1.45h-1.21v-.967s-.241-.483-.725-.725l-.242-.241c-.725 0-1.451.241-2.177.483 0 0 .242 0 .242.242l.484.483.242 1.45c-.484 0-.726.242-1.21.242l-.242-.967-.241-.242c-.242 0-.242-.242-.484-.483l-.242-.242-2.177.725s.242 0 .242.242c.242.242.483.242.483.242l.484 1.208c-.242.241-.725.241-.967.483l-.484-.966s-.484-.242-.726-.484c-.242 0-.242 0-.242-.242-.725.242-1.21.726-1.935 1.209h.484c.242 0 .242.241.242.241l.726 1.209c-.242.242-.726.483-.968.725l-.484-.725s-.484-.242-.967-.242h-.242c-.484.483-.968.725-1.452 1.208l-.242.242h.242c.242 0 .484.242.484.242l.968.966-.726.725-.726-.725s-.483 0-.967-.241h-.242c-.484.483-.968 1.208-1.451 1.691h.725l.968.725c-.242.242-.484.484-.726.967l-.726-.483h-1.209c-.484.725-.726 1.208-1.21 1.933h.726l1.21.725c-.242.242-.242.725-.484.967l-.968-.484h-1.21l-.726 2.175h.242c.242 0 .484-.241.484-.241l1.21.483c0 .241-.243.725-.243.966l-.967-.241s-.484.242-.968.242h-.242c-.242.724-.242 1.45-.484 2.174h.242c.242-.241.484-.241.484-.241l1.451.242c0 .483 0 .724-.241 1.208h-.968l-.968.483c-.242 0-.242 0-.242.242v2.175s.242 0 .242-.242c.242-.242.484-.242.484-.242l2.661-.241z" fill="#9891A1"/><path d="M74.115 66.611c.242.242.484.725.726.967l1.21-.725s0-.242.241-.242v-.241c-.242-.484-.484-.725-.967-1.209-.242.484-.242.967-.242.967l-.968.483zM41.701 77.244c.242-9.183 7.983-16.433 17.175-16.433 9.192.242 16.449 7.975 16.449 17.158-.242 9.183-7.983 16.433-17.175 16.433-9.434-.242-16.69-7.975-16.449-17.158z" fill="#A49DAE"/><path d="M39.767 77.245c.242-10.15 8.708-18.367 19.11-18.125 10.16.242 18.384 8.7 18.142 19.091-.242 10.15-8.708 18.366-19.11 18.125-10.16-.484-18.384-8.942-18.142-19.091zm.242 0c-.242 10.15 7.74 18.607 17.9 18.85 10.16.24 18.626-7.734 18.868-17.884.242-10.15-7.74-18.608-17.9-18.85-10.16-.483-18.626 7.734-18.868 17.884z" fill="#A49DAE"/><path d="M71.21 91.745l.969.966s.241 0 .483.242l.968-.967c-.484 0-.968-.242-.968-.242l-.725-.725-.726.725zm2.179-2.418l.967.725h.484c.242-.483.484-.725.968-1.208h-.968l-.726-.483c-.242.483-.483.725-.725.966zm-7.741 6.043c.242-.243.726-.243.968-.484l.484.967s.484.241.726.483l-1.452.725c-.242-.242-.484-.242-.484-.242l-.242-1.45zm3.63-.484l-.725-1.209c.242-.241.725-.483.967-.725l.484.725s.484.242.968.242c-.484.242-.726.483-1.21.725h-.242c0 .483-.242.242-.242.242zm6.046-8.216l1.21.724h.483c.242-.483.484-.966.726-1.208h-.967l-.968-.483c-.242.241-.242.483-.484.966zM77.5 75.794v1.208h1.451s.242-.241.484-.241v-1.45c-.484.241-.725.725-.725.725l-1.21-.242zM62.504 96.336c.484 0 .726-.242 1.21-.242l.241.967.242.241c.242 0 .242.242.484.484-.484.241-.968.241-1.451.483l-.484-.483-.242-1.45zm14.027-12.808l1.21.483s.242 0 .484-.242c.241-.483.241-.967.483-1.45-.483.242-.967.242-.967.242l-.968-.242c0 .483 0 .967-.242 1.209zm.244-10.875c0 .242.242.725.242 1.208l1.452-.241.484-.484c0-.483-.242-.966-.484-1.45l-.484.484-.242.241-.968.242zm-.966-3.142c.242.242.242.725.483.967l1.21-.484s.242-.241.242-.483c-.242-.483-.484-.967-.726-1.208-.242.483-.484.725-.484.725l-.725.483zm1.451 10.875l1.451.241s.242 0 .484-.241c0-.484 0-.967.242-1.45l-.968.483h-.967c0 .242 0 .483-.242.967zm-36.285 7.975l1.21-.725c.241.242.483.725.725.967l-.726.483s-.242.483-.242.967c-.242-.484-.484-.725-.725-1.209v-.241c-.242 0-.242-.242-.242-.242zm-.243-3.625c.242.241.242.725.484.966l-.968.484s-.241.483-.483.725l-.726-1.45c.242-.242.242-.484.242-.484l1.451-.241zm18.385 11.841h1.21v.967s.242.483.725.725h-1.451c-.242-.242-.242-.483-.242-.483l-.242-1.209zM44.12 90.294l.725.725-.725.725s0 .483-.242.966l-.968-.966c0-.242.242-.484.242-.484l.968-.966zm-6.048-12.083h1.451v1.208h-.967s-.484.242-.726.725v-1.45c0-.241.242-.483.242-.483zm1.693 3.383c0 .484.242.725.242 1.209l-.967.241-.242.242c0 .242-.242.242-.484.483-.242-.483-.242-.966-.484-1.45l.484-.483 1.451-.242zm12.82 14.259c.242 0 .726.241.968.241l-.242.967s.242.483.242.966c-.484 0-.968-.241-1.452-.483 0-.242-.242-.483-.242-.483l.726-1.209zm3.145.724c.484 0 .726 0 1.21.242v.966l.484.967c-.484 0-.968 0-1.452-.242-.242-.241-.242-.483-.242-.483v-1.45zm-6.29-2.175c.242.242.726.242.968.483l-.484.967v.966c-.483-.241-.967-.483-1.21-.725v-.483l.727-1.208zm-2.902-1.692c.242.242.484.484.968.726l-.484.725v.966c-.484-.242-.726-.483-1.21-.966v-.484l.726-.966zm-.725-31.899c.483.242.967.242.967.242l.484.725c.242-.242.726-.483.967-.725l-.725-1.208s-.242 0-.242-.242h-.242c-.242.725-.726.967-1.21 1.208zm14.271-3.141v.967c.483 0 .725 0 1.21.241l.241-1.45s0-.241-.242-.483c-.484 0-.967 0-1.451-.242 0 .484.242.967.242.967zm6.291 2.658c.242.242.726.242.968.483l.725-1.208v-.483c-.483-.242-.967-.483-1.21-.725v.967l-.483.966zm-2.903-2.175l-.242.967c.484 0 .726.242.968.242l.484-1.209s0-.241-.242-.483c-.484-.242-.968-.242-1.452-.483.484.483.484.966.484.966zm-11.128-.483l.483.483.242.242.242.967c.242 0 .726-.242 1.21-.242l-.242-1.45-.484-.483c-.484.241-.968.241-1.451.483zm-8.95 8.216c-.242.242-.484.484-.726.967l-.726-.483h-.967c.242-.484.483-.725.967-1.209h.484l.968.725zm-3.143 5.8c0 .241-.242.725-.242.966l-.967-.241s-.484.241-.968.241c0-.483.242-.966.484-1.45.242 0 .484-.241.484-.241l1.21.725zm15.722-14.741c.242.483.725.725.725.725v.967h1.21v-1.45s-.242-.242-.242-.484c-.726 0-1.21 0-1.693.242zm-7.014 1.933c.484.242.726.484.726.484l.483.966c.242-.241.726-.241.968-.483l-.484-1.208s-.242-.242-.483-.242c-.242 0-.726.242-1.21.483zm-7.257 9.666c-.242.242-.242.725-.484.967l-.967-.484h-.968c.242-.483.484-.966.726-1.208h.484l1.21.725zm-2.182 6.284c0 .483 0 .725-.241 1.208h-.968l-.967.483c0-.483 0-.966.242-1.45.242-.241.483-.241.483-.241h1.452zM69.277 62.02c.242.242.726.484.968.725l.726-.966v-.484c-.484-.241-.726-.483-1.21-.966v.966l-.484.725zM45.57 63.47l-.726.725-.726-.725s-.484 0-.968-.242l.968-.966c.242 0 .484.242.484.242l.967.966zm26.368.483l.725.725.968-.966s0-.242.242-.484l-.968-.966c0 .483-.242.966-.242.966l-.725.725z" fill="#A49DAE"/><path opacity=".1" d="M71.938 63.953l.725.725.968-.966s0-.242.242-.484l-.968-.966c0 .483-.242.966-.242.966l-.725.725z" fill="#9892A2"/><path opacity=".15" d="M38.07 82.319s-.242 0 0 0c-.242 0-.242 0 0 0-.242-.241-.242-.241 0 0z" fill="#9B94A4"/><path d="M42.668 77.486c0 8.7 7.015 15.708 15.723 15.708 8.709 0 15.724-7.008 15.724-15.708S67.1 61.778 58.39 61.778c-8.708 0-15.723 7.008-15.723 15.708z" fill="#FEFEFE"/><path d="M45.33 77.486c0 7.25 5.806 13.05 13.063 13.05 7.256 0 13.062-5.8 13.062-13.05 0-7.25-5.806-13.05-13.063-13.05-7.256.242-13.062 6.042-13.062 13.05z" fill="#A49DAE"/><path d="M57.666 79.66l1.451-4.35-13.546-3.383-.968 2.659 13.063 5.075z" fill="#E1D7EF"/><path d="M60.328 78.936l-3.628-2.66-7.741 11.6 2.419 1.933 8.95-10.874z" fill="#E1D7EF"/><path d="M60.326 76.278l-3.629 2.658 8.709 10.874 2.418-1.933-7.498-11.6z" fill="#E1D7EF"/><path d="M57.668 75.31l1.451 4.35 13.063-5.074-.968-2.659-13.546 3.384z" fill="#E1D7EF"/><path d="M56.217 77.486h4.596l-.968-13.775h-2.902l-.726 13.775z" fill="#E1D7EF"/><path d="M53.795 77.486c0 2.658 2.177 4.833 4.838 4.833 2.66 0 4.838-2.175 4.838-4.833 0-2.658-2.177-4.833-4.838-4.833-2.903.242-4.838 2.416-4.838 4.833z" fill="#FEFEFE"/><path d="M58.39 57.428h-9.192c-9.676 0-17.9 7.492-18.626 17.158.484-10.633 5.08-22.474 27.818-17.158zm147.799 0h-9.192c-9.676 0-17.9 7.492-18.626 17.158.484-10.633 5.08-22.474 27.818-17.158z" fill="#CCC3D9"/><path opacity=".75" d="M70.727 10.304l14.755 19.333 15.724.242L84.031 7.163h-.484c-3.145 0-6.047 0-9.434.242-.242 0-.484 0-.968.483-.725.483-1.45 1.208-2.418 2.416zm15.238-3.141l17.174 22.716h5.08L91.045 7.163h-5.08zM31.54 19.004l7.498 9.667 6.773.241s.242 0 .242-.241c.967-2.175 1.935-4.592 3.145-7.008L39.28 8.855c-1.694.966-2.661 2.416-3.87 4.108-1.21 1.691-2.661 3.866-3.87 6.041zM40.73 8.13l9.193 12.082c.725-1.45 1.209-2.658 1.935-4.108l-6.773-8.941c-1.936.241-3.145.483-4.355.966z" fill="#fff"/></svg>