<svg width="205" height="97" fill="none" xmlns="http://www.w3.org/2000/svg"><path d="M88.297 3.005c0 1.208.967 2.175 2.177 2.175h20.319c1.21 0 2.177-.967 2.177-2.175A2.167 2.167 0 00110.793.83h-20.32a2.167 2.167 0 00-2.176 2.175z" fill="#CBC2D7"/><path d="M8.955 81.787c0 .241.242.483.242.725 0 .241.242.241.242.241s0 .242.242.242c0 .242.242.242.242.483.242.484.725.725 1.21 1.209.241.241.483.241.725.483h.242c.242.242.484.242.725.242l2.661.725.726.241h37.736l55.636-.241h78.133l1.209-.484.968-.241 5.805-1.692c.242 0 .484-.242.484-.242.242-.241.484-.241.726-.483.242 0 .242-.242.483-.242.242 0 .242-.241.242-.241l.242-.242c.242-.242.242-.483.484-.967.242-.724.484-1.45.484-1.933V62.937c0-1.208 0-2.658-.242-3.866 0-.242 0-.725-.242-.967l-.726-2.175c-.483-.967-1.209-1.45-2.419-1.933 0 0-26.124-8.217-31.446-10.15-.484-.242-.968-.242-.968-.483l-1.693-.484h-10.402c-2.177 0-4.112-1.933-4.112-4.108V15.813c0-1.45 1.21-2.658 2.661-2.658h2.419l.726-.483c-.242-.967-.484-1.209-.968-1.934-3.87-6.766-9.918-6.766-25.157-6.766h-13.304l-24.674.241-56.846-.483c-3.144 0-7.982 1.692-10.401 6.042-.242.483-.484.966-.484 1.45l-9.918 29.966c-.725 2.175-.967 4.35-1.21 6.524v32.143l-.483 1.933z" fill="#CBC2D7"/><path d="M13.793 79.854c0 .966 0 1.933.242 2.658.242.967.484 2.175.726 3.141h.967l33.382-.241 1.21-.242.967-.241c.484-1.45.726-2.9.726-4.592v-.483c0-10.392-8.467-19.092-19.11-19.092-10.644.242-19.11 8.7-19.11 19.092zm138.365 0c0 .966 0 1.933.242 2.658.242.967.484 2.175.726 3.141h.967l33.382-.241 1.21-.242.967-.241c.484-1.45.726-2.9.726-4.592v-.483c0-10.392-8.467-19.092-19.11-19.092-10.643.242-19.11 8.7-19.11 19.092z" fill="#A69FB0"/><path d="M8.47 79.853c.243 2.659 1.936 4.834 4.597 5.559l2.66.725.968.241 33.382-.241 103.048-.484h.967l33.382-.241 1.21-.242.967-.242 5.806-1.691c1.209-.484 2.419-1.45 2.902-2.417v-.725l-7.982.484-36.043 2.174H50.077l-41.606-2.9z" fill="#A69FB0"/><path d="M198.846 81.787c0 1.45 1.209 2.658 2.661 2.658 3.628 0 3.87-9.183 0-9.183-1.452 0-2.661 1.208-2.661 2.658v3.867z" fill="#A59DAF"/><path d="M191.83 79.853c0 1.692 1.451 3.142 3.145 3.142h5.08c1.693 0 3.144-1.45 3.144-3.142 0-1.691-1.451-3.141-3.144-3.141h-5.08c-1.694.241-3.145 1.45-3.145 3.141z" fill="#E2D8F1"/><path d="M119.742 11.947h18.868c2.661 0 4.838 2.175 4.838 4.833v58c0 3.383-2.661 6.041-6.047 6.041h-.242c-12.095 0-21.771-9.666-21.771-21.75V17.023c-.484-2.9 1.693-5.075 4.354-5.075z" fill="#A69FB0"/><path d="M7.02 81.304c0 1.45-1.21 2.658-2.903 2.658-4.112 0-4.354-9.183 0-9.183 1.451 0 2.903 1.208 2.903 2.658v3.867z" fill="#A59DAF"/><path d="M14.52 79.37c0 1.692-1.452 3.142-3.145 3.142h-5.08c-1.693 0-3.145-1.45-3.145-3.142 0-1.691 1.452-3.141 3.145-3.141h5.08c1.935.242 3.145 1.45 3.145 3.141z" fill="#E2D8F1"/><path d="M120.711 49.163h3.87c.968 0 1.693-.725 1.693-1.692 0-.966-.725-1.691-1.693-1.691h-3.87c-.968 0-1.693.725-1.693 1.691 0 .967.725 1.692 1.693 1.692z" fill="#CBC2D7"/><path d="M120.227 47.471c0 .242 1.693.725 3.87.725s3.87-.241 3.87-.724c0-.242-1.693-.726-3.87-.726s-3.87.242-3.87.725z" fill="#EADFF8"/><path d="M21.049 10.014h130.14c-3.87-6.767-9.918-6.767-25.157-6.767L31.45 3.73c-3.144 0-8.224 1.692-10.401 6.284z" fill="#A69FB0"/><path d="M146.354 15.088v22.958c0 2.175 1.935 4.108 4.112 4.108h10.401c0-.483-.242-.966-.242-1.45-2.177-9.183-4.838-18.124-8.466-26.824l-.726-1.45h-2.419c-1.451 0-2.66 1.208-2.66 2.658z" fill="#DDD3EA"/><path d="M149.013 11.705h3.144s-.241.483-.483 1.208h-2.661c-1.21 0-2.177.967-2.177 2.175v22.958c0 1.933 1.693 3.625 3.628 3.625h10.16s1.451.966 1.935 1.208h-12.095c-2.661 0-4.596-2.175-4.596-4.591V15.33c-.242-1.934 1.21-3.625 3.145-3.625zm42.815 50.024c0 2.658 2.177 4.591 4.596 4.591h2.177v-4.59c0-1.208 0-2.658-.242-3.867 0-.241 0-.725-.242-.966h-1.693c-2.661.241-4.596 2.416-4.596 4.833z" fill="#A69FB0"/><path d="M196.425 58.104h1.693c.484 0 .968.483 1.21.967.483 1.933.483 3.866 0 5.558-.242.483-.726.966-1.21.966h-1.693c-2.177 0-3.87-1.933-3.629-4.108 0-1.933 1.694-3.383 3.629-3.383z" fill="#D0C7DD"/><path d="M9.2 63.42h3.87a4.334 4.334 0 004.354-4.35 4.334 4.334 0 00-4.354-4.35H9.44v4.35l-.24 4.35z" fill="#CCC3D9"/><path d="M120.951 40.221H137.4c1.935 0 3.386-1.45 3.386-3.383V17.747c0-1.934-1.451-3.384-3.386-3.384h-16.449c-1.936 0-3.387 1.45-3.387 3.384v19.09c-.242 1.934 1.451 3.384 3.387 3.384z" fill="#DDD3EA"/><path d="M168.608 50.37l28.785 4.834c-.484-.967-1.209-1.45-2.419-1.934 0 0-26.125-8.216-31.446-10.15-.726 3.384 1.451 6.767 5.08 7.25zm29.267 24.167c0 .241.242.483.483.483.242 0 .484-.242.484-.483V69.22c0-.242-.242-.483-.484-.483-.241 0-.483.241-.483.483v5.317zm-1.691 0c0 .241.241.483.483.483s.483-.242.483-.483V69.22c0-.242-.241-.483-.483-.483s-.483.241-.483.483v5.317zm-1.452 0c0 .241.242.483.484.483.241 0 .483-.242.483-.483V69.22c0-.242-.242-.483-.483-.483-.242 0-.484.241-.484.483v5.317z" fill="#A69FB0"/><path d="M24.92 41.912h78.375c1.935 0 3.628-1.691 3.628-3.624V15.813c0-1.933-1.693-3.625-3.628-3.625h-72.57c-1.692 0-3.144.967-3.628 2.658l-6.53 21.508c-.485 2.659 1.45 5.558 4.353 5.558z" fill="#C0B7CC"/><path d="M30.723 17.988c0 .725.725 1.45 1.451 1.45h68.941c.725 0 1.451-.725 1.451-1.45s-.726-1.45-1.451-1.45H32.174c-.726 0-1.451.725-1.451 1.45zM29.03 24.03c0 .724.725 1.45 1.45 1.45h70.635c.725 0 1.451-.726 1.451-1.45 0-.726-.726-1.45-1.451-1.45H30.481c-.726 0-1.452.724-1.452 1.45zm-1.694 6.041c0 .725.726 1.45 1.451 1.45h72.327c.726 0 1.452-.725 1.452-1.45s-.726-1.45-1.452-1.45H28.787c-.725 0-1.451.483-1.451 1.45zm-1.693 5.799c0 .726.725 1.45 1.45 1.45h74.021c.726 0 1.452-.724 1.452-1.45 0-.724-.726-1.45-1.452-1.45h-74.02c-.726.242-1.451.726-1.451 1.45z" fill="#CBC2D7"/><path opacity=".65" d="M118.291 17.021l9.918 22.233h8.466l-10.643-24.166h-5.08c-1.21 0-2.177.967-2.661 1.933zm8.949-1.933l10.644 24.166a2.625 2.625 0 001.935-1.933l-9.676-22.233h-2.903zm19.838.483v5.8l8.466 19.333h4.596c-2.177-9.183-4.837-18.124-8.466-26.824h-2.903c-.725 0-1.693.725-1.693 1.691z" fill="#fff"/><path opacity=".1" d="M4.117 74.778c1.209 0 2.177.725 2.66 1.45h2.42V63.903l189.646 10.15v.484c0 .241-.242.483-.242.483v1.933h.484c.484-.966 1.21-1.45 2.419-1.45 3.87 0 3.629 9.183 0 9.183-.968 0-1.935-.725-2.419-1.45h-3.386c-.242 0-.484.242-.484.242l-5.322 1.692-.484.241h-.242l-.725.242-1.21.242h-36.768l-100.145.483H16.21l-.725-.242h-.242l-2.661-.725c-.242 0-.726-.241-.968-.483-1.21-.483-1.935-1.208-2.66-2.175 0 0 0-.242-.242-.242h-2.66c-.484.967-1.452 1.45-2.661 1.45-3.145 0-3.387-9.183.726-9.183z" fill="#8E8796"/><path d="M160.865 80.82c0 5.558 4.596 10.15 10.16 10.15s10.16-4.592 10.16-10.15c0-5.558-4.596-10.15-10.16-10.15s-10.16 4.592-10.16 10.15z" fill="#E1D7EF"/><path d="M155.061 80.82c0 8.941 7.256 15.95 15.965 15.95 8.95 0 15.965-7.25 15.965-15.95 0-8.941-7.257-15.95-15.965-15.95-8.709 0-15.965 7.008-15.965 15.95zm6.289 0c0-5.558 4.354-9.908 9.918-9.908 5.563 0 9.917 4.35 9.917 9.908s-4.354 9.908-9.917 9.908c-5.564 0-9.918-4.35-9.918-9.908z" fill="#9891A1"/><path d="M163.766 80.82c0 4.108 3.386 7.492 7.498 7.492 4.113 0 7.499-3.384 7.499-7.492 0-4.108-3.386-7.491-7.499-7.491-4.112 0-7.498 3.383-7.498 7.491z" fill="#fff"/><path d="M166.67 80.82c0 2.417 1.935 4.592 4.596 4.592 2.419 0 4.596-1.933 4.596-4.592 0-2.416-1.935-4.591-4.596-4.591s-4.596 2.175-4.596 4.591z" fill="#E1D7EF"/><path opacity=".5" d="M175.136 72.603c1.451.726 2.903 1.934 3.87 3.384l-7.74 4.591 3.87-7.975zm-3.87 8.217l-3.87 8.217c-1.694-.725-2.903-1.934-3.871-3.384l7.741-4.833z" fill="#fff"/><path d="M22.74 80.82c0 5.558 4.596 10.15 10.16 10.15s10.16-4.592 10.16-10.15c0-5.558-4.596-10.15-10.16-10.15-5.806 0-10.16 4.592-10.16 10.15z" fill="#E1D7EF"/><path d="M16.936 80.82c0 8.942 7.256 15.95 15.965 15.95 8.95 0 15.965-7.25 15.965-15.95 0-8.941-7.257-15.95-15.965-15.95-8.95 0-15.966 7.009-15.966 15.95zm6.047 0c0-5.558 4.354-9.908 9.918-9.908 5.563 0 9.917 4.35 9.917 9.908s-4.354 9.908-9.917 9.908c-5.564 0-9.918-4.35-9.918-9.908z" fill="#9891A1"/><path d="M25.4 80.82c0 4.108 3.387 7.492 7.5 7.492 4.111 0 7.498-3.384 7.498-7.492 0-4.108-3.387-7.491-7.499-7.491S25.4 76.712 25.4 80.82z" fill="#fff"/><path d="M28.305 80.82c0 2.417 1.935 4.592 4.596 4.592 2.419 0 4.596-1.933 4.596-4.592 0-2.416-1.935-4.591-4.596-4.591-2.42 0-4.596 2.175-4.596 4.591z" fill="#E1D7EF"/><path opacity=".5" d="M36.769 72.603c1.451.726 2.903 1.934 3.87 3.384l-7.74 4.591 3.87-7.975zM32.9 80.82l-3.87 8.217c-1.693-.725-2.902-1.934-3.87-3.384l7.74-4.833z" fill="#fff"/><path d="M148.287 39.496c0 .483.484.967.968.967h3.144c.484 0 .968-.484.968-.967V27.655c0-.725-.726-1.45-1.451-1.45h-2.178c-.725 0-1.209.483-1.209 1.208v12.083h-.242z" fill="#A69FB0"/><path d="M156.996 45.78h.484c.484-.243.484-.726.484-1.21l-5.806-11.116c-.242-.483-.726-.483-1.209-.483-.484.242-.484.725-.484 1.208l5.805 11.117c.242.483.484.483.726.483z" fill="#9891A1"/></svg>