<svg width="187" height="40" fill="none" xmlns="http://www.w3.org/2000/svg"><path d="M179.796 31.331c-1.935 0-3.87.725-5.079 1.934-2.177-4.592-8.951-7.733-17.175-7.733-5.08 0-9.676 1.208-12.821 3.383-2.177-4.108-6.289-7.008-11.369-7.008-3.386 0-6.531 1.45-8.95 3.625-4.596-6.767-14.03-11.358-24.915-11.358-7.5 0-14.514 2.174-19.594 6.041C75.781 8.857 64.895.882 52.075.882c-12.579 0-23.464 7.975-27.818 19.091-2.177-.966-4.354-1.45-7.015-1.45C8.05 18.523.793 26.015.793 34.956c0 1.45.242 2.9.726 4.35H186.81v-.241c.484-4.35-2.902-7.734-7.015-7.734z" fill="#F4EBFF"/></svg>