<svg width="205" height="354" fill="none" xmlns="http://www.w3.org/2000/svg"><path opacity=".3" d="M13.305 170.779c.484 3.867 1.21 7.733 1.935 11.358.242 1.208.484 2.175.726 3.383l1.45 5.075c-.241 2.9-.241 5.8-.483 8.458l-.242 6.767c0 2.175-.242 4.35-.242 6.283 6.532-.483 14.514-.483 22.98-.242 3.145 6.042 2.661 13.534 1.936 20.542-.242 2.9-.484 6.041-1.694 8.7-1.21 2.658-3.144 5.316-5.805 6.283 2.903 2.658 4.596 6.525 5.322 10.149.725 3.867.725 7.734 1.21 11.6.241 5.317.967 10.633 1.692 15.708v-2.416l.968-27.55 7.983-53.165v-1.209l8.708 52.924.242.967c0 12.808-.484 26.583-.726 39.874v.725c.484-5.075.968-10.15 1.21-15.466 0-2.417.241-4.834.967-7.008.484-1.45 1.21-2.9 1.693-4.35 1.694-5.317 1.21-11.358 4.113-16.192.242-.483.483-.966.483-1.45 0-.483-.241-1.208-.241-1.691-4.355-11.6-5.806-24.408-4.596-36.733 8.224 0 15.723-.725 21.77-2.175l-.484-6.766-.967-14.742-.484-8.941-.726-11.358c-12.094-.242-24.431 1.691-36.526 2.175-10.885.966-21.529.483-32.172.483z" fill="#1D1D1B"/><path d="M41.121 46.323l6.773-.967.968 6.525-7.257-.241-.484-5.317z" fill="#EBB677"/><path opacity=".3" d="M57.813 80.398c3.386 22.958 6.53 46.157 12.094 68.632 2.903 11.599 6.29 22.716 10.402 33.59.725 2.175 1.693 4.35 2.66 6.767v-.483l-.483-8.942-.726-11.358-.242-5.558v-7.733c0-2.175-.242-4.35-.242-6.283 0-1.45-.242-3.142-.242-4.592-.241-1.933-.241-3.625-.483-5.317 0-.725-.242-1.691-.242-2.416 0-.967-.242-1.934-.242-2.9 0-.967-.242-1.692-.242-2.658 0-.967-.242-1.692-.242-2.659v-.241c-9.676-14.5-14.03-32.141-21.77-47.85zm-20.56 62.348c-2.419-11.358-7.015-22.233-9.918-33.591-2.902-11.358-3.386-23.924 2.42-34.074-1.452 13.775 3.87 27.066 7.256 40.599 3.87 15.95 4.838 32.866 2.661 49.057-.484-7.249-.967-14.741-2.419-21.991z" fill="#456F96"/><path d="M13.06 349.85v.966h24.916v-1.208c-.242-1.208-.484-2.416-.726-3.383-1.21-3.867-4.112-5.075-7.499-5.558-1.21-.242-2.419-.242-3.87-.242h-.968c-5.805 0-10.643.483-11.61 6.525-.243 1.208-.243 1.933-.243 2.9z" fill="#212121"/><path d="M12.818 349.85l.242 1.208v2.658h24.916l-.242-2.658v-1.208H12.818zm52.978-1.45v2.416h40.155c0-.483 0-.725-.242-.966-1.21-5.8-8.467-8.7-16.45-9.908-6.289-.967-12.82-.725-17.9 0-1.693.241-3.144.483-4.354.966-.484.242-1.693.484-1.21 7.492z" fill="#1D1715"/><path d="M65.797 349.849v.967l.242 2.9h40.155l-.242-2.9v-.967H65.797z" fill="#16191E"/><path d="M130.626 165.946c.725 1.208.484 3.383.484 4.833-.484 4.108-1.452 6.283-2.903 9.666-1.694 3.867-10.402-.966-10.644-1.691-.242-.725 0-1.692.726-2.175 1.693-1.209 4.112.966 5.564-.484.483-.483.483-1.208.725-1.933.242-1.692-.242-3.866-1.693-4.591-.968-.484-2.419-.242-3.628-.242-3.145.242-7.499-2.658-8.709-5.558-1.209-2.9 1.21-5.559 3.629-7.492.967-.966 2.419-1.45 3.87-1.208.726.242 11.611 9.425 12.579 10.875z" fill="#FFAE80"/><path d="M11.128 345.017c0 .966.726 1.691 2.177 2.175 2.177.724 5.805.966 9.676.966.725 0 1.451 0 2.177-.242 4.112-.241 8.466-.966 11.853-1.691 1.21-.242 2.177-.483 2.902-.725l2.178-60.657v-2.417l.967-27.549 7.983-53.166v-1.208l8.708 52.924.242.967c0 12.808-.484 26.341-.726 39.874-.242 21.024.242 41.082 4.596 54.857.242-.242.484-.242.726-.242.242-.242.726-.242.968-.483 1.935-.725 4.112-1.45 6.53-1.934 5.806-1.691 12.58-3.141 17.417-6.524v-.242l-2.419-83.615-2.66-46.157-.484-6.767-.726-14.258v-.483l-.484-8.941-.725-11.359-.242-5.558v-2.175l-.242-3.625-.242-3.624-.242-4.35H13.063c-.242 1.691-.242 3.141-.242 4.833v3.383c0 4.108.242 7.975.484 11.841 0 .725.242 1.209.242 1.934.484 3.866 1.21 7.733 1.935 11.358.242 1.208.484 2.175.726 3.383l1.451 5.075c0 1.208-.242 2.417-.242 3.867 0 1.691-.242 3.141-.242 4.833l-.242 6.766c0 2.175-.241 4.35-.241 6.284-.726 14.016-1.21 27.549-1.21 37.699v2.9c0 3.866-.242 9.908-.726 17.399-1.935 24.408-5.805 62.591-3.628 74.674z" fill="#5E4A4C"/><path d="M21.286 52.123l-1.21-21.266c9.192-.242 21.287-.967 23.464-1.45 0 0 .968 15.466 1.935 21.991 4.113 16.916-15.965 19.333-24.19.725z" fill="#FFAE80"/><path d="M17.416 34.724c-2.177-3.867-2.42-5.8-3.387-10.15C11.61 4.033 23.705 5 31.446 3.791c8.95-.966 18.384 3.867 20.803 17.4a14.381 14.381 0 01-.726 2.658l4.112 7.25c.726 1.208.242 2.658-1.21 3.141l-1.934.725 1.21 7.25c.483 3.384-.243 9.183-5.08 9.425-1.936-.242-6.532-3.383-8.95-15.708-3.145.242-20.562 1.692-22.255-1.208z" fill="#FFAE80"/><path d="M21.046 43.665c24.432 2.658 18.142-8.458 18.384-10.875 0-.725 3.87-.725 3.87-1.45-.241-12.566-5.321-20.3 4.839-20.3 3.628-1.208 4.112-13.532-19.11-9.424-10.16 1.933-17.417 8.7-17.659 19.091-.484 10.15 5.322 21.508 9.676 22.958z" fill="#000"/><path d="M34.106 31.099c.484 3.141 3.145 6.525 4.838 6.283 1.694-.241 1.21-2.9.726-6.283-.242-2.175-.726-5.075-2.419-5.558-1.693 0-3.87.966-3.145 5.558z" fill="#FFAE80"/><path d="M0 76.29v1.69l1.21 15.708v.483s6.047 56.066 3.87 91.59c-.242 5.075 4.112 9.425 9.434 8.7.967 0 1.693-.242 2.66-.242 9.193-.725 21.771.242 34.35 1.692 3.628.483 7.499.966 11.127 1.45 8.708 1.208 16.933-5.075 17.417-14.017v-.966c.725-6.284.967-12.808.967-19.817v-7.733c0-2.175-.242-4.35-.242-6.283 0-1.45-.241-3.141-.241-4.591-.242-1.934-.242-3.625-.484-5.317 0-.725-.242-1.692-.242-2.417 0-.966-.242-1.933-.242-2.9 0-.966-.242-1.691-.242-2.658 0-.966-.242-1.691-.242-2.658v-.242c0-.725-.242-1.45-.242-2.416 0-.967-.242-1.692-.242-2.659-.483-4.591-1.21-8.941-1.693-13.291-.726-4.833-1.451-9.425-2.177-13.533-.484-2.175-.726-4.35-1.21-6.283-.725-3.625-1.209-6.767-1.935-9.667-.483-2.9-.967-5.075-1.451-6.766-.484-2.417-.968-3.867-.968-3.867-2.419-4.35-1.693-7.733-6.289-10.15 0 0-.242 0-.484-.241-.483-.242-1.21-.484-1.935-.725h-.242c-4.838-1.45-14.03-4.35-14.03-4.35h-.725l-22.98 1.45-4.355.241-10.401 6.042C3.145 64.69 0 70.248 0 76.289z" fill="#EA4A49"/><path d="M43.057 49.948c-6.29-1.208-20.32-.242-22.497.725l-1.693 4.833c1.694 2.9 16.45 2.658 27.818-1.691l-.483-1.209c-.484-1.208-1.694-2.416-3.145-2.658z" fill="#C21E1D"/><path d="M50.798 60.823c-.725.967-.967 1.934-1.45 2.9-.968 3.867-.727 8.942.967 12.567v.241c1.451 3.625 3.144 7.008 4.596 10.633.967 2.175 1.935 4.35 2.903 6.767 1.45 3.141 2.66 6.525 4.112 9.666 1.935 4.35 3.87 8.458 5.805 12.567 2.177 4.35 12.337 15.949 22.013 27.307.726.725 1.451 1.692 1.935 2.417 4.596 5.317 11.611 15.225 14.756 19.091l16.207-10.15c-10.644-15.224-35.559-50.507-35.559-50.507s-4.838-15.224-7.257-22.233c-.242-.483-.242-.966-.484-1.45-1.21-3.624-2.177-7.008-3.628-10.15-.484-1.208-1.21-2.416-1.935-3.624 0 0 0-.242-.242-.484-.484-.483-.726-1.208-1.21-1.691 0 0 0-.242-.242-.242-2.902-3.383-7.014-5.558-11.369-6.525-4.112-.725-7.74 0-9.918 2.9z" fill="#EA4A49"/><path d="M134.738 215.244l-1.935.483 28.544 116.481 23.947-5.8c9.434-2.175 14.998-11.358 12.821-20.299l-3.387-13.775-11.369-46.157-.726-3.142c-5.079-20.783-26.366-33.107-47.895-27.791z" fill="#5589B9"/><path d="M124.093 171.987c.725 2.658-.968 5.075-3.629 5.8-2.661.725-5.321-.967-5.805-3.383-.726-2.659.967-5.075 3.628-5.8 2.661-.725 5.08.966 5.806 3.383z" fill="#4D4D4D"/><path d="M158.687 345.258l5.321-1.208-42.09-171.096c-.483-1.45-1.935-2.417-3.386-2.175-1.452.483-2.419 1.933-1.935 3.383l42.09 171.096z" fill="#1D1715"/><path d="M181.909 309.25l-11.369 2.659c-3.629.966-7.499-1.209-8.467-4.833l-8.224-33.108c-.968-3.625 1.451-7.25 5.08-8.217l11.369-2.658c3.628-.966 7.499 1.208 8.466 4.833l8.225 33.108c1.209 3.625-1.21 7.25-5.08 8.216zm14.271-45.674l8.225 33.108c.967 3.625-1.452 7.25-5.08 8.217l-1.21.241-11.369-46.157 1.21-.242c3.386-.966 7.257 1.209 8.224 4.833z" fill="#4072A1"/><path d="M179.97 271.276l-24.908 6.086 1.725 7.043 24.907-6.087-1.724-7.042zm16.926-3.951l-7.99 1.951 1.723 7.042 7.989-1.95-1.722-7.043z" fill="#ECF0F1"/><path d="M170.78 342.358c1.209 4.833-1.936 9.908-7.015 11.116-5.08 1.209-10.16-1.691-11.369-6.524-1.21-4.834 1.935-9.908 7.015-11.117 5.079-1.45 10.159 1.45 11.369 6.525z" fill="#1D1715"/><path d="M166.185 343.324c.484 2.417-.967 4.833-3.386 5.558-2.419.725-5.08-.966-5.564-3.383-.484-2.416.968-4.833 3.387-5.558 2.419-.483 4.838.967 5.563 3.383z" fill="#F6F6F6"/></svg>