<svg width="169" height="107" fill="none" xmlns="http://www.w3.org/2000/svg"><g filter="url(#filter0_d_1929_1578)"><path d="M149.405 0h-130c-8.247 0-14.947 6.658-15 14.905l-.31 49C4.044 72.226 10.775 79 19.096 79H105l20 20 20-20h4.095c8.247 0 14.947-6.658 14.999-14.905l.31-49C164.457 6.774 157.726 0 149.405 0z" fill="#fff"/><path d="M25.96 29.234L22.97 34H21.4l3.203-4.992c-.839-.266-1.448-.667-1.829-1.203-.38-.542-.57-1.224-.57-2.047 0-1.021.352-1.805 1.055-2.352.708-.552 1.779-.828 3.21-.828h3.141V34h-1.328v-4.766h-2.32zm2.321-5.507h-1.773c-.953 0-1.677.164-2.172.492-.495.328-.742.862-.742 1.601 0 1.516.987 2.274 2.96 2.274h1.727v-4.367zm15.383 3.859c0 .557-.161.982-.484 1.273-.318.287-.766.48-1.344.578v.07c.73.1 1.26.313 1.594.641.338.329.508.782.508 1.36 0 .797-.295 1.411-.883 1.844-.584.432-1.438.648-2.563.648H36.72v-8.563h3.758c2.125 0 3.187.717 3.187 2.149zm-1.023 3.836c0-.464-.177-.8-.532-1.008-.349-.213-.93-.32-1.742-.32h-2.351v2.82h2.382c1.495 0 2.243-.497 2.243-1.492zm-.243-3.711c0-.417-.161-.711-.484-.883-.318-.177-.802-.265-1.453-.265h-2.445v2.414h2.195c.802 0 1.367-.1 1.695-.297.328-.198.492-.521.492-.97zm10.82 2c0 1.396-.35 2.487-1.054 3.273-.703.782-1.674 1.172-2.914 1.172-.766 0-1.445-.18-2.04-.539-.593-.36-1.051-.875-1.374-1.547-.323-.672-.484-1.458-.484-2.36 0-1.395.349-2.48 1.046-3.257.698-.781 1.667-1.172 2.907-1.172 1.198 0 2.148.399 2.851 1.196.709.796 1.063 1.875 1.063 3.234zm-6.523 0c0 1.094.22 1.927.657 2.5.437.573 1.08.86 1.93.86.848 0 1.491-.285 1.929-.852.443-.573.664-1.41.664-2.508 0-1.089-.221-1.914-.664-2.477-.438-.567-1.086-.851-1.945-.851-.85 0-1.49.279-1.922.836-.433.557-.649 1.388-.649 2.492zm16.196 0c0 1.396-.352 2.487-1.055 3.273-.703.782-1.675 1.172-2.914 1.172-.766 0-1.445-.18-2.04-.539-.593-.36-1.051-.875-1.374-1.547-.323-.672-.485-1.458-.485-2.36 0-1.395.35-2.48 1.047-3.257.698-.781 1.667-1.172 2.907-1.172 1.198 0 2.148.399 2.851 1.196.708.796 1.063 1.875 1.063 3.234zm-6.524 0c0 1.094.219 1.927.656 2.5.438.573 1.081.86 1.93.86.85 0 1.492-.285 1.93-.852.442-.573.664-1.41.664-2.508 0-1.089-.221-1.914-.664-2.477-.438-.567-1.086-.851-1.946-.851-.848 0-1.49.279-1.921.836-.433.557-.649 1.388-.649 2.492zm8.36-.844c0-1.875.276-3.336.828-4.383.552-1.052 1.427-1.708 2.625-1.968 1.49-.318 2.802-.576 3.937-.774l.242 1.14c-1.807.303-3.099.542-3.875.72-.755.171-1.322.578-1.703 1.218-.375.64-.58 1.513-.617 2.617h.094a3.37 3.37 0 011.25-1.03 3.597 3.597 0 011.601-.376c1.053 0 1.873.341 2.461 1.024.589.682.883 1.627.883 2.836 0 1.338-.341 2.385-1.023 3.14-.683.75-1.633 1.125-2.852 1.125-1.203 0-2.146-.46-2.828-1.383-.682-.921-1.023-2.224-1.023-3.906zm3.968 4.203c1.589 0 2.383-1.013 2.383-3.039 0-1.932-.721-2.898-2.164-2.898-.396 0-.779.083-1.148.25-.365.161-.7.377-1.008.648-.302.271-.537.55-.703.836 0 1.37.216 2.414.648 3.133.432.714 1.096 1.07 1.992 1.07zm12.407-.187h3.796v-7.43h1.297v7.43h1.227v4.062h-1.313V34H74.72v-8.547h1.297v7.43h3.789v-7.43h1.297v7.43zm11.593 1.273c-1.265 0-2.265-.385-3-1.156-.729-.77-1.093-1.841-1.093-3.21 0-1.381.338-2.477 1.015-3.29.682-.813 1.596-1.219 2.742-1.219 1.073 0 1.922.354 2.547 1.063.625.703.938 1.633.938 2.789v.82h-5.899c.026 1.005.279 1.768.758 2.29.484.52 1.164.78 2.04.78.921 0 1.833-.192 2.734-.578v1.157a6.631 6.631 0 01-1.305.421 7.041 7.041 0 01-1.477.133zm-.351-7.789c-.688 0-1.237.224-1.649.672-.406.448-.645 1.068-.718 1.86h4.476c0-.818-.182-1.443-.547-1.876-.364-.437-.885-.656-1.562-.656zm5 3.938v-1.188h3.836v1.188h-3.836zm11.648-3.758h-2.781V34h-1.297v-7.453h-2.75v-1.11h6.828v1.11zm9.086 3.164c0 1.396-.351 2.487-1.055 3.273-.703.782-1.674 1.172-2.914 1.172-.765 0-1.445-.18-2.039-.539-.593-.36-1.052-.875-1.375-1.547-.323-.672-.484-1.458-.484-2.36 0-1.395.349-2.48 1.047-3.257.698-.781 1.666-1.172 2.906-1.172 1.198 0 2.148.399 2.852 1.196.708.796 1.062 1.875 1.062 3.234zm-6.523 0c0 1.094.218 1.927.656 2.5.437.573 1.081.86 1.93.86s1.492-.285 1.929-.852c.443-.573.664-1.41.664-2.508 0-1.089-.221-1.914-.664-2.477-.437-.567-1.086-.851-1.945-.851-.849 0-1.49.279-1.922.836-.432.557-.648 1.388-.648 2.492zm14.257-4.273v3.585h4.797v-3.585h1.297V34h-1.297v-3.86h-4.797V34h-1.296v-8.563h1.296zm12.461 8.718c-1.265 0-2.265-.385-3-1.156-.729-.77-1.093-1.841-1.093-3.21 0-1.381.338-2.477 1.015-3.29.683-.813 1.597-1.219 2.743-1.219 1.072 0 1.921.354 2.546 1.063.625.703.938 1.633.938 2.789v.82h-5.899c.026 1.005.279 1.768.758 2.29.485.52 1.164.78 2.039.78a6.9 6.9 0 002.735-.578v1.157a6.655 6.655 0 01-1.305.421c-.406.089-.898.133-1.477.133zm-.351-7.789c-.688 0-1.237.224-1.649.672-.406.448-.645 1.068-.718 1.86h4.476c0-.818-.182-1.443-.547-1.876-.364-.437-.885-.656-1.562-.656zM24.008 50.992c1.62 0 2.43-.448 2.43-1.344 0-.843-.657-1.265-1.97-1.265-.4 0-.765.036-1.093.11-.328.072-.758.218-1.29.437l-.46-1.055c.885-.396 1.852-.594 2.898-.594.985 0 1.76.203 2.329.61.567.4.851.95.851 1.648 0 .958-.534 1.586-1.601 1.883v.062c.656.193 1.135.47 1.437.828.302.355.453.8.453 1.336 0 .792-.32 1.41-.96 1.852-.636.438-1.516.656-2.641.656-1.235 0-2.188-.185-2.86-.554v-1.188c.953.448 1.917.672 2.89.672.75 0 1.316-.128 1.696-.383.386-.26.578-.633.578-1.117 0-.995-.81-1.492-2.43-1.492h-1.187v-1.102h.93zM35.375 56l-.258-1.219h-.062c-.427.537-.855.901-1.282 1.094-.421.188-.95.281-1.586.281-.848 0-1.515-.218-2-.656-.479-.438-.718-1.06-.718-1.867 0-1.73 1.383-2.636 4.148-2.719l1.453-.047v-.531c0-.672-.145-1.167-.437-1.484-.287-.323-.748-.485-1.383-.485-.714 0-1.52.219-2.422.656l-.398-.992a6.112 6.112 0 011.383-.539 6.052 6.052 0 011.515-.195c1.021 0 1.776.226 2.266.68.495.453.742 1.18.742 2.18V56h-.961zm-2.93-.914c.808 0 1.44-.221 1.899-.664.463-.443.695-1.063.695-1.86v-.773l-1.297.055c-1.031.036-1.776.198-2.234.484-.453.281-.68.721-.68 1.32 0 .47.14.826.422 1.07.287.245.685.368 1.195.368zm17.672-5.5c0 .557-.161.982-.484 1.273-.318.287-.766.48-1.344.578v.07c.73.1 1.26.313 1.594.641.338.329.508.782.508 1.36 0 .797-.295 1.411-.883 1.844-.584.432-1.438.648-2.563.648h-3.773v-8.563h3.758c2.125 0 3.187.717 3.187 2.149zm-1.023 3.836c0-.464-.177-.8-.532-1.008-.348-.214-.93-.32-1.742-.32h-2.35v2.82h2.383c1.494 0 2.242-.497 2.242-1.492zm-.242-3.711c0-.417-.162-.711-.485-.883-.317-.177-.802-.266-1.453-.266H44.47v2.415h2.195c.802 0 1.367-.1 1.695-.297.328-.198.493-.521.493-.97zM57.547 56l-.258-1.219h-.062c-.427.537-.855.901-1.282 1.094-.422.188-.95.281-1.586.281-.849 0-1.515-.218-2-.656-.479-.438-.718-1.06-.718-1.867 0-1.73 1.382-2.636 4.148-2.719l1.453-.047v-.531c0-.672-.146-1.167-.437-1.484-.287-.323-.748-.485-1.383-.485-.714 0-1.521.219-2.422.656l-.398-.992a6.085 6.085 0 011.382-.539 6.052 6.052 0 011.516-.195c1.02 0 1.776.226 2.266.68.494.453.742 1.18.742 2.18V56h-.961zm-2.93-.914c.808 0 1.44-.221 1.899-.664.463-.443.695-1.063.695-1.86v-.773l-1.297.055c-1.031.036-1.776.198-2.234.484-.453.281-.68.721-.68 1.32 0 .47.14.826.422 1.07.286.245.685.368 1.195.368zm11.016-.336l.242-.727.336-.921 2.32-5.649h1.649V56h-1.15v-7.07l-.156.453-.453 1.195L66.21 56h-1.086l-2.21-5.438c-.277-.697-.467-1.242-.571-1.632V56h-1.157v-8.547h1.586l2.243 5.43c.224.573.43 1.195.617 1.867zm8.539-7.313v5.43l-.055 1.422-.023.445 4.633-7.297h1.617V56h-1.211v-5.234l.023-1.032.04-1.015L74.57 56h-1.617v-8.563h1.219zm10.094 5.415h-.82l-.4-8.274h1.618l-.398 8.274zm-1.36 2.32c0-.708.313-1.063.938-1.063.302 0 .534.091.695.274.167.182.25.445.25.789 0 .333-.083.594-.25.781-.167.182-.398.274-.695.274a.96.96 0 01-.672-.243c-.177-.166-.266-.437-.266-.812z" fill="#1E0606"/></g><defs><filter id="filter0_d_1929_1578" x=".096" y="0" width="168.309" height="107" filterUnits="userSpaceOnUse" color-interpolation-filters="sRGB"><feFlood flood-opacity="0" result="BackgroundImageFix"/><feColorMatrix in="SourceAlpha" values="0 0 0 0 0 0 0 0 0 0 0 0 0 0 0 0 0 0 127 0" result="hardAlpha"/><feOffset dy="4"/><feGaussianBlur stdDeviation="2"/><feColorMatrix values="0 0 0 0 0 0 0 0 0 0 0 0 0 0 0 0 0 0 0.25 0"/><feBlend in2="BackgroundImageFix" result="effect1_dropShadow_1929_1578"/><feBlend in="SourceGraphic" in2="effect1_dropShadow_1929_1578" result="shape"/></filter></defs></svg>