<svg width="168" height="85" fill="none" xmlns="http://www.w3.org/2000/svg"><g filter="url(#filter0_d_1929_1563)"><path d="M149 0H19C10.716 0 4 6.716 4 15v27c0 8.284 6.716 15 15 15h9l20 20 20-20h81c8.284 0 15-6.716 15-15V15c0-8.284-6.716-15-15-15z" fill="#fff"/><path d="M24.648 23.602c-.895 0-1.765.197-2.609.593l-.562-1.125c.895-.437 1.958-.656 3.187-.656 1.13 0 2.102.23 2.914.688a4.482 4.482 0 011.86 1.96c.421.85.632 1.85.632 3 0 1.959-.474 3.464-1.422 4.516-.947 1.052-2.312 1.578-4.093 1.578-1.183 0-2.18-.148-2.992-.445v-1.164c.432.11.872.208 1.32.297.448.088.93.133 1.445.133 1.412 0 2.477-.375 3.195-1.125.72-.756 1.1-1.842 1.141-3.258h-5.617v-1.188h5.601c-.114-1.192-.526-2.125-1.234-2.797-.703-.672-1.625-1.007-2.766-1.007zm9.024 1.835v5.43l-.055 1.422-.023.445 4.633-7.297h1.617V34h-1.211v-5.234l.023-1.032.04-1.015L34.07 34h-1.617v-8.563h1.219zm2.445-1.132c-.963 0-1.666-.185-2.11-.555-.442-.375-.69-.99-.741-1.844h1.218c.047.542.188.92.422 1.133.24.214.654.32 1.242.32.537 0 .933-.114 1.188-.343.26-.23.42-.6.477-1.11h1.226c-.062.823-.325 1.43-.789 1.82-.464.386-1.175.579-2.133.579zm7.836 7.836l.117.18c-.135.52-.33 1.124-.586 1.812a25.16 25.16 0 01-.797 1.93h-.976c.14-.542.294-1.211.46-2.008.173-.797.293-1.435.36-1.914h1.422zm12.492-5.594h-2.78V34h-1.298v-7.453h-2.75v-1.11h6.828v1.11zM63.406 34l-.258-1.219h-.062c-.427.537-.854.901-1.281 1.094-.422.188-.95.281-1.586.281-.85 0-1.516-.218-2-.656-.48-.438-.719-1.06-.719-1.867 0-1.73 1.383-2.636 4.148-2.719l1.454-.047v-.531c0-.672-.146-1.167-.438-1.484-.286-.323-.747-.485-1.383-.485-.713 0-1.52.219-2.422.656l-.398-.992a6.112 6.112 0 011.383-.539 6.052 6.052 0 011.515-.195c1.021 0 1.776.226 2.266.68.495.453.742 1.18.742 2.18V34h-.96zm-2.93-.914c.808 0 1.44-.221 1.899-.664.464-.443.695-1.063.695-1.86v-.773l-1.297.055c-1.03.036-1.776.198-2.234.484-.453.281-.68.721-.68 1.32 0 .47.141.826.422 1.07.287.245.685.368 1.196.368zm11.563-7.648h1.422l-3.695 4.132 4 4.43H72.25l-3.906-4.336V34h-1.297v-8.563h1.297v4.165l3.695-4.165zm6.742 8.718c-1.24 0-2.2-.38-2.883-1.14-.677-.766-1.015-1.847-1.015-3.243 0-1.432.344-2.539 1.031-3.32.693-.781 1.677-1.172 2.953-1.172.412 0 .823.045 1.235.133.411.089.734.193.968.313l-.398 1.101a5.824 5.824 0 00-.938-.281 4.055 4.055 0 00-.898-.117c-1.74 0-2.61 1.11-2.61 3.328 0 1.052.212 1.86.633 2.422.428.562 1.058.843 1.891.843.713 0 1.445-.153 2.195-.46v1.148c-.573.297-1.294.445-2.164.445zm5.422-8.718v5.43l-.055 1.421-.023.445 4.633-7.297h1.617V34h-1.21v-5.234l.022-1.032.04-1.015L84.602 34h-1.618v-8.563h1.22zm10.281 6.703l.118.18c-.136.52-.331 1.124-.586 1.812a25.99 25.99 0 01-.797 1.93h-.977c.14-.542.294-1.211.461-2.008.172-.797.292-1.435.36-1.914h1.421zm12.493-5.594h-2.782V34h-1.297v-7.453h-2.75v-1.11h6.829v1.11zM113.938 34l-.258-1.219h-.063c-.427.537-.854.901-1.281 1.094-.422.188-.951.281-1.586.281-.849 0-1.516-.218-2-.656-.479-.438-.719-1.06-.719-1.867 0-1.73 1.383-2.636 4.149-2.719l1.453-.047v-.531c0-.672-.146-1.167-.438-1.484-.286-.323-.747-.485-1.383-.485-.713 0-1.52.219-2.421.656l-.399-.992a6.112 6.112 0 011.383-.539 6.049 6.049 0 011.516-.195c1.02 0 1.776.226 2.265.68.495.453.742 1.18.742 2.18V34h-.96zm-2.93-.914c.807 0 1.44-.221 1.898-.664.464-.443.696-1.063.696-1.86v-.773l-1.297.055c-1.032.036-1.776.198-2.235.484-.453.281-.679.721-.679 1.32 0 .47.14.826.421 1.07.287.245.685.368 1.196.368zm11.562-7.648h1.422l-3.695 4.132 4 4.43h-1.516l-3.906-4.336V34h-1.297v-8.563h1.297v4.165l3.695-4.165zm6.742 8.718c-1.239 0-2.2-.38-2.882-1.14-.677-.766-1.016-1.847-1.016-3.243 0-1.432.344-2.539 1.031-3.32.693-.781 1.677-1.172 2.953-1.172.412 0 .823.045 1.235.133.411.089.734.193.969.313l-.399 1.101a5.818 5.818 0 00-.937-.281 4.059 4.059 0 00-.899-.117c-1.739 0-2.609 1.11-2.609 3.328 0 1.052.211 1.86.633 2.422.427.562 1.057.843 1.89.843.714 0 1.446-.153 2.196-.46v1.148c-.573.297-1.295.445-2.165.445zm5.422-8.718v5.43l-.054 1.421-.024.445 4.633-7.297h1.617V34h-1.211v-5.234l.024-1.032.039-1.015L135.133 34h-1.617v-8.563h1.218zm10.094 5.414h-.82l-.399-8.274h1.618l-.399 8.274zm-1.359 2.32c0-.708.312-1.063.937-1.063.302 0 .534.091.696.274.166.182.25.445.25.789 0 .333-.084.594-.25.781-.167.182-.399.274-.696.274a.96.96 0 01-.672-.243c-.177-.166-.265-.437-.265-.812z" fill="#1E0606"/></g><defs><filter id="filter0_d_1929_1563" x="0" y="0" width="168" height="85" filterUnits="userSpaceOnUse" color-interpolation-filters="sRGB"><feFlood flood-opacity="0" result="BackgroundImageFix"/><feColorMatrix in="SourceAlpha" values="0 0 0 0 0 0 0 0 0 0 0 0 0 0 0 0 0 0 127 0" result="hardAlpha"/><feOffset dy="4"/><feGaussianBlur stdDeviation="2"/><feColorMatrix values="0 0 0 0 0 0 0 0 0 0 0 0 0 0 0 0 0 0 0.25 0"/><feBlend in2="BackgroundImageFix" result="effect1_dropShadow_1929_1563"/><feBlend in="SourceGraphic" in2="effect1_dropShadow_1929_1563" result="shape"/></filter></defs></svg>