<svg width="169" height="107" fill="none" xmlns="http://www.w3.org/2000/svg"><g filter="url(#filter0_d_1929_1572)"><path d="M149.405 0h-130c-8.247 0-14.947 6.658-15 14.905l-.31 49C4.044 72.226 10.775 79 19.096 79H105l20 20 20-20h4.095c8.247 0 14.947-6.658 14.999-14.905l.31-49C164.457 6.774 157.726 0 149.405 0z" fill="#fff"/><path d="M31.578 36.977h-1.265V34h-7.938v2.977h-1.266v-4.18h.883c.802-1.35 1.487-2.99 2.055-4.922.573-1.932.89-3.698.953-5.297h5.133v10.219h1.445v4.18zm-2.773-4.18v-9.024h-2.602c-.094 1.26-.409 2.776-.945 4.547-.537 1.766-1.162 3.258-1.875 4.477h5.422zm8.414-7.344h1.195v4.149l3.54-4.149h1.421l-3.578 4.149L43.68 34h-1.5l-3.766-4.336V34H37.22v-4.336L33.46 34h-1.492l3.875-4.398-3.57-4.149h1.421l3.524 4.149v-4.149zm11.492 8.703c-1.266 0-2.266-.385-3-1.156-.73-.77-1.094-1.841-1.094-3.21 0-1.381.339-2.477 1.016-3.29.682-.813 1.596-1.219 2.742-1.219 1.073 0 1.922.354 2.547 1.063.625.703.937 1.633.937 2.789v.82h-5.898c.026 1.005.279 1.768.758 2.29.484.52 1.164.78 2.039.78.922 0 1.833-.192 2.734-.578v1.157a6.627 6.627 0 01-1.304.421 7.04 7.04 0 01-1.477.133zm-.352-7.789c-.687 0-1.237.224-1.648.672-.406.448-.646 1.068-.719 1.86h4.477c0-.818-.183-1.443-.547-1.876-.365-.437-.886-.656-1.563-.656zm9.141 7.79c-1.24 0-2.2-.381-2.883-1.141-.677-.766-1.015-1.847-1.015-3.243 0-1.432.343-2.539 1.03-3.32.694-.781 1.678-1.172 2.954-1.172.411 0 .823.045 1.234.133.412.089.735.193.97.313l-.4 1.101a5.818 5.818 0 00-.937-.281 4.055 4.055 0 00-.898-.117c-1.74 0-2.61 1.11-2.61 3.328 0 1.052.211 1.86.633 2.422.427.562 1.057.843 1.89.843.714 0 1.446-.153 2.196-.46v1.148c-.573.297-1.294.445-2.164.445zm5.422-8.72v5.43l-.055 1.422-.023.445 4.633-7.297h1.617V34h-1.211v-5.234l.023-1.032.04-1.015L63.32 34h-1.617v-8.563h1.219zm10.281 6.704l.117.18c-.135.52-.33 1.124-.586 1.812-.255.692-.52 1.336-.796 1.93h-.977c.14-.542.294-1.211.46-2.008.173-.797.292-1.435.36-1.914h1.422zm10.14 2.015c-1.239 0-2.2-.38-2.882-1.14-.677-.766-1.016-1.847-1.016-3.243 0-1.432.344-2.539 1.032-3.32.692-.781 1.677-1.172 2.953-1.172.411 0 .823.045 1.234.133.412.089.734.193.969.313l-.399 1.101a5.824 5.824 0 00-.937-.281 4.055 4.055 0 00-.899-.117c-1.74 0-2.609 1.11-2.609 3.328 0 1.052.211 1.86.633 2.422.427.562 1.057.843 1.89.843.714 0 1.446-.153 2.196-.46v1.148c-.573.297-1.294.445-2.164.445zm8.65-1.406l.241-.727.336-.921 2.32-5.649h1.65V34h-1.15v-7.07l-.156.453-.453 1.195L92.571 34h-1.087l-2.21-5.438c-.277-.697-.467-1.242-.57-1.632V34h-1.157v-8.547h1.586l2.242 5.43c.224.573.43 1.195.617 1.867zm14.71-3.04c0 1.397-.351 2.488-1.055 3.274-.703.782-1.674 1.172-2.914 1.172-.765 0-1.445-.18-2.039-.539-.593-.36-1.052-.875-1.375-1.547-.323-.672-.484-1.458-.484-2.36 0-1.395.349-2.48 1.047-3.257.698-.781 1.666-1.172 2.906-1.172 1.198 0 2.149.399 2.852 1.196.708.796 1.062 1.875 1.062 3.234zm-6.523 0c0 1.095.218 1.928.656 2.5.437.574 1.081.86 1.93.86s1.492-.284 1.929-.851c.443-.573.664-1.41.664-2.508 0-1.089-.221-1.914-.664-2.477-.437-.567-1.086-.851-1.945-.851-.849 0-1.49.279-1.922.836-.432.557-.648 1.388-.648 2.492zm14.578-3.163h-2.781V34h-1.297v-7.453h-2.75v-1.11h6.828v1.11zm5.68 7.61a3.777 3.777 0 01-1.532-.305 2.909 2.909 0 01-1.156-.954h-.094c.063.5.094.974.094 1.422v3.524h-1.297V25.437h1.055l.18 1.172h.062c.333-.468.721-.807 1.164-1.015.443-.209.951-.313 1.524-.313 1.135 0 2.01.388 2.624 1.164.62.776.93 1.865.93 3.266 0 1.406-.315 2.5-.945 3.281-.625.776-1.495 1.164-2.609 1.164zm-.188-7.774c-.875 0-1.508.242-1.898.726-.391.485-.592 1.256-.602 2.313v.289c0 1.203.201 2.065.602 2.586.401.516 1.044.773 1.929.773.74 0 1.318-.3 1.735-.898.422-.6.632-1.425.632-2.477 0-1.067-.21-1.885-.632-2.453-.417-.573-1.006-.86-1.766-.86zm7.234-.945v5.43l-.054 1.421-.024.445 4.633-7.297h1.617V34h-1.211v-5.234l.024-1.032.039-1.015L127.883 34h-1.617v-8.563h1.218zm10.282 6.703l.117.18c-.136.52-.331 1.124-.586 1.812a25.389 25.389 0 01-.797 1.93h-.977c.141-.542.295-1.211.461-2.008.172-.797.292-1.435.36-1.914h1.422zM28.148 48.547h-2.78V56H24.07v-7.453h-2.75v-1.11h6.828v1.11zM35.11 56l-.257-1.219h-.063c-.427.537-.854.901-1.281 1.094-.422.188-.95.281-1.586.281-.85 0-1.516-.218-2-.656-.48-.438-.719-1.06-.719-1.867 0-1.73 1.383-2.636 4.149-2.719l1.453-.047v-.531c0-.672-.146-1.167-.438-1.484-.286-.323-.747-.485-1.383-.485-.713 0-1.52.219-2.422.656l-.398-.992a6.112 6.112 0 011.383-.539 6.052 6.052 0 011.515-.195c1.021 0 1.777.226 2.266.68.495.453.742 1.18.742 2.18V56h-.96zm-2.93-.914c.808 0 1.44-.221 1.9-.664.463-.443.694-1.063.694-1.86v-.773l-1.296.055c-1.032.036-1.776.198-2.235.484-.453.281-.68.721-.68 1.32 0 .47.141.826.422 1.07.287.245.685.368 1.196.368zm11.563-7.648h1.422L41.47 51.57l4 4.43h-1.516l-3.906-4.336V56H38.75v-8.563h1.297v4.165l3.695-4.164zm6.742 8.718c-1.24 0-2.2-.38-2.882-1.14-.677-.766-1.016-1.847-1.016-3.243 0-1.432.344-2.539 1.031-3.32.693-.781 1.677-1.172 2.953-1.172.412 0 .823.044 1.235.133.411.089.734.193.968.313l-.398 1.101a5.824 5.824 0 00-.938-.281 4.055 4.055 0 00-.898-.117c-1.74 0-2.61 1.11-2.61 3.328 0 1.052.212 1.86.633 2.422.428.562 1.058.843 1.891.843.714 0 1.445-.153 2.195-.46v1.148c-.573.297-1.294.445-2.164.445zm5.422-8.718v5.43l-.054 1.421-.024.445 4.633-7.297h1.617V56h-1.21v-5.234l.023-1.032.039-1.015L56.305 56h-1.617v-8.563h1.218zm16.696 8.718c-1.266 0-2.266-.385-3-1.156-.73-.77-1.094-1.841-1.094-3.21 0-1.381.338-2.477 1.015-3.29.683-.813 1.597-1.219 2.743-1.219 1.072 0 1.921.354 2.546 1.063.626.703.938 1.633.938 2.789v.82h-5.898c.026 1.005.278 1.768.757 2.29.485.52 1.164.78 2.04.78.921 0 1.833-.192 2.734-.578v1.157a6.627 6.627 0 01-1.305.421 7.04 7.04 0 01-1.476.133zm-.352-7.789c-.688 0-1.237.224-1.648.672-.407.448-.646 1.068-.72 1.86h4.477c0-.818-.182-1.443-.546-1.876-.365-.437-.886-.656-1.563-.656zm13.156 10.594h-1.258V56h-5.984v2.96h-1.25v-4.077h.672c.698-.948 1.245-2.06 1.64-3.336.396-1.276.602-2.646.618-4.11h4.336v7.446h1.226v4.078zm-2.476-4.078V48.46h-1.922a14.235 14.235 0 01-.672 3.516c-.375 1.182-.844 2.15-1.406 2.906h4zm7.812 1.273c-1.265 0-2.265-.385-3-1.156-.729-.77-1.094-1.841-1.094-3.21 0-1.381.339-2.477 1.016-3.29.682-.813 1.596-1.219 2.742-1.219 1.073 0 1.922.354 2.547 1.063.625.703.938 1.633.938 2.789v.82h-5.899c.026 1.005.279 1.768.758 2.29.484.52 1.164.78 2.04.78.92 0 1.832-.192 2.733-.578v1.157a6.628 6.628 0 01-1.304.421 7.041 7.041 0 01-1.477.133zm-.351-7.789c-.688 0-1.237.224-1.649.672-.406.448-.646 1.068-.719 1.86H92.5c0-.818-.182-1.443-.547-1.876-.365-.437-.885-.656-1.562-.656zm11.492.18h-2.781V56h-1.297v-7.453h-2.75v-1.11h6.828v1.11zm2.867 4.305h-.82l-.399-8.274h1.617l-.398 8.274zm-1.359 2.32c0-.708.312-1.063.937-1.063.302 0 .534.091.695.274.167.182.25.445.25.789 0 .333-.083.594-.25.781-.166.182-.398.274-.695.274a.96.96 0 01-.672-.243c-.177-.166-.265-.437-.265-.812z" fill="#1E0606"/></g><defs><filter id="filter0_d_1929_1572" x=".096" y="0" width="168.309" height="107" filterUnits="userSpaceOnUse" color-interpolation-filters="sRGB"><feFlood flood-opacity="0" result="BackgroundImageFix"/><feColorMatrix in="SourceAlpha" values="0 0 0 0 0 0 0 0 0 0 0 0 0 0 0 0 0 0 127 0" result="hardAlpha"/><feOffset dy="4"/><feGaussianBlur stdDeviation="2"/><feColorMatrix values="0 0 0 0 0 0 0 0 0 0 0 0 0 0 0 0 0 0 0.25 0"/><feBlend in2="BackgroundImageFix" result="effect1_dropShadow_1929_1572"/><feBlend in="SourceGraphic" in2="effect1_dropShadow_1929_1572" result="shape"/></filter></defs></svg>