<svg width="887" height="267" fill="none" xmlns="http://www.w3.org/2000/svg"><path d="M345.248 101.762l-14.756 2.9c-10.16-5.8-4.354-2.417-11.611-6.767l-22.496 8.458 17.416 29.483h51.04l-4.354-10.875-8.95-.241-3.144-3.625.967-13.05-4.112-6.283z" fill="#000"/><path d="M427.494 82.912l.726 7.492.726 8.458.483 5.316c5.564 6.042 12.579-4.35 16.933-8.216l.484-14.258-19.352 1.208z" fill="#FFAE80"/><path opacity=".4" d="M428.217 90.404l.725 8.458c5.322-2.175 8.951-6.283 10.16-10.633l-10.885 2.175z" fill="#FFAE80"/><path d="M453.133 73.005c-.967 3.625-4.596 7.25-5.563 9.908-.726 2.417-12.095 7.733-15.965 9.183-3.387 1.208-7.983.725-9.676-1.933-1.452-2.175-1.21-4.35.242-12.325h-1.694c-.967-.483-1.451-1.692-.725-2.658l1.209-2.175 1.452-2.175.483-.725s-.242-.967-.483-2.175c0-.242 0-.483.241-.483.242-.967.484-1.692.726-2.659.726-1.933 1.693-3.624 2.661-4.833 3.387-4.591 8.466-6.041 13.546-5.316 5.806.966 15.965 1.933 13.546 18.366z" fill="#FFAE80"/><path opacity=".4" d="M439.345 66.722l-.484 2.416-17.9 4.108 1.451-2.175.484-.725s-.242-.966-.484-2.175c0-.241 0-.483.242-.483l16.691-.966z" fill="#FFAE80"/><path d="M446.603 86.538c-11.369.483-2.903-11.117-2.903-11.117s-.726-2.9-1.935-1.933c-1.693-.242-2.177-.966-3.87-1.45 1.935-7.975 5.079-16.191-8.225-15.708.484-2.9 5.322-4.35 11.369-3.383 8.225 1.208 14.514 7.25 13.788 15.708-.241 4.591-.242 7.491-8.224 17.883z" fill="#2F2E29"/><path d="M452.408 128.345c-1.451 8.7-1.209 15.708-1.451 22.233h-37.736v-1.933c0-3.142.242-6.042.242-8.459v-.966c0-1.45 0-2.9.242-3.867 0-1.691.241-2.658.241-2.658v-.967a53.402 53.402 0 012.661-11.116c4.354-13.292 12.337-21.75 12.337-21.75s16.933-5.8 17.417-5.316c7.74 5.075 8.95 12.566 8.708 15.224-.484 8.459-1.693 13.292-2.661 19.575z" fill="#5E4A4C"/><path d="M445.391 76.871c-.484 2.659-3.145 5.075-4.838 4.834-1.693-.242-1.21-2.417-.726-4.834.242-1.691.242-4.108 2.177-4.35 1.693-.241 3.87.725 3.387 4.35z" fill="#FFAE80"/><path opacity=".5" d="M436.443 135.353l-5.322 15.466h-17.9v-1.933c0-3.142.242-6.042.242-8.458v-.967c0-1.45 0-2.9.242-3.867 0-1.691.241-2.658.241-2.658v-.966a53.396 53.396 0 012.661-11.117l7.499-9.908 17.417 9.666-2.419 7.009-2.661 7.733z" fill="#5589B9"/><path d="M439.348 123.753l-33.624 18.366-11.853-15.949 35.075-20.3c4.596-2.658 14.03-4.833 17.417 1.209 0 .241 5.563 10.149-7.015 16.674z" fill="#5E4A4C"/><path d="M416.848 141.394l-.483.484c-.242.241-.242.241-.484.241-.484.242-1.21.725-1.693.967-3.629 1.45-7.741.967-11.128-1.208l-1.693-.967-23.464-12.566-9.192-4.35 1.451-12.325 15.482 5.075 21.287 6.766 3.144.967 2.903.967c2.661.725 4.838 2.658 6.047 4.833.968 1.933 1.452 4.35.726 6.767-.725 1.933-1.693 3.383-2.903 4.349z" fill="#5E4A4C"/><path d="M446.119 139.461h35.075l9.918-51.715h-17.901c-9.917 0-18.626 7.008-20.319 16.916l-6.773 34.799z" fill="#000"/><path d="M365.568 113.846l-5.322-8.7-8.95-3.384 4.838 7.009-5.08 1.933-3.87-6.042.241 12.567 7.016 6.041 9.917 1.692 1.21-11.116z" fill="#FFAE80"/><path d="M360.487 115.537l-4.354 2.9-16.207-24.65c-.726-1.208-.484-2.9.725-3.625 1.21-.725 2.903-.483 3.629.725l16.207 24.65zm55.636-48.091c.726.484 38.703-1.45 38.703-1.45s1.452-9.424-2.177-11.358c-15.965-9.666-33.865 6.284-35.317 8.217-1.693 2.175 2.178 2.416 2.178 2.416s-4.113 1.934-3.387 2.175z" fill="#000"/><path d="M483.613.506h10.159c1.936 0 3.629 1.45 3.871 3.384l4.354 33.832h-26.851l4.355-33.832c.483-1.934 2.177-3.384 4.112-3.384z" fill="#F9B233"/><path d="M872.824 173.777l-1.693.242c-1.693.241-3.145-2.417-3.629-6.042l-2.177-21.024c-.483-3.867.726-7.25 2.661-7.492h1.21c1.693 0 3.145 2.417 3.628 5.8l2.661 20.783c.484 3.867-.725 7.491-2.661 7.733z" fill="#E94E1B"/><path d="M16.027 180.302l-6.048-.483c-3.87-.242-7.015-3.625-7.257-7.733l-2.66-29c-.484-4.108 1.935-7.975 5.563-8.7l3.87-.966 6.532 46.882z" fill="#FFC55E"/><path d="M18.446 181.752l-8.708-.725-5.322-49.057 10.885-.242 3.145 50.024z" fill="#000"/><path d="M17.237 210.51l-9.676.241c-2.42 0-4.596-1.691-5.08-4.108l-2.419-15.95c-.484-2.899 1.935-5.558 4.838-5.558h13.062l2.903 21.025c.484 2.175-1.21 4.35-3.628 4.35z" fill="#DAD1D1"/><path d="M872.099 177.644l-3.87-35.766c-.726-7.491-6.531-13.774-14.03-15.224L698.66 94.271c-5.08-.967-9.918-3.625-13.788-7.25l-30.963-30.208c-14.514-14.258-34.108-22.232-54.669-22.232H389.274c-6.047 0-11.853 1.933-16.691 5.8l-71.359 54.857c-7.257 5.558-15.724 8.699-24.916 9.183L33.202 116.504c-14.755.725-25.64 3.383-23.705 18.124l6.047 57.758c1.451 11.599 10.643 20.782 22.254 22.232l53.943 7.009h640.542l11.611-.725 4.838-.242 92.888-6.525c18.626-1.692 32.415-18.125 30.479-36.491zm-400.096-71.773H313.56l68.699-52.924c1.935-1.45 4.354-2.417 7.015-2.417h86.599l-3.87 55.341z" fill="#F9B233"/><path opacity=".75" d="M261.309 112.396L33.442 123.754c-5.08.241-19.11.725-17.174 12.324l6.047 55.341c-3.87-63.315 3.629-59.69 30.48-61.624l208.514-17.399zm603.533 65.973l-3.87-35.766c-.484-4.591-3.871-8.216-8.225-9.183l-154.33-33.59c-.483 0-2.902 1.208-2.902 1.208 150.217 35.04 157.232 32.382 169.327 77.331z" fill="#F6F6F6"/><path d="M478.292 143.086l.242-3.866 6.773-97.39h-96.275c-4.354 0-8.95 1.45-12.336 4.109l-71.36 54.857a58.495 58.495 0 01-9.676 6.041l-7.982 32.141-1.694 6.525 5.564 39.874 4.112 28.758h189.889l-2.903-28.758-4.354-42.291zm-6.289-37.215H313.561l68.698-52.924c1.935-1.45 4.354-2.417 7.015-2.417h86.599l-3.87 55.341z" fill="#fff"/><path d="M389.274 48.838c-2.903 0-5.806.967-7.983 2.658l-71.359 54.858c-.484.483-.968.725-1.694 1.208h165.458l4.112-58.724h-88.534zm82.728 57.032H313.56l68.699-52.924c1.935-1.45 4.354-2.416 7.015-2.416h86.599l-3.871 55.34z" fill="#F9B233"/><path d="M485.547 143.086l4.354 42.533 2.903 28.757h112.24c.967-10.391 4.112-20.057 8.95-28.757 9.192-17.158 24.915-30.208 44.267-36.008V139.22l.242-23.683c0-5.8-1.693-11.358-5.08-15.95l-33.382-46.882c-4.838-6.525-12.336-10.875-20.561-10.875H492.562l-6.773 97.39-.242 3.866z" fill="#fff"/><path d="M613.996 56.813c-3.629-4.833-8.951-7.733-14.756-7.975H499.095l-4.113 58.965 154.572-.241-35.558-50.749z" fill="#1D1715"/><path d="M468.858 117.954H437.17v10.15h31.688v-10.15zm180.938 0h-31.689v10.15h31.689v-10.15z" fill="#000"/><path d="M871.858 177.402l.484 4.592H852.99c-9.918 0-17.9 7.975-17.9 17.883v.241l42.09-1.933c4.838-.242 9.192-3.867 8.708-8.7 0-.966-.242-1.933-.242-2.9-.484-5.075-4.838-8.941-9.918-8.941h-3.87v-.242zM35.14 206.16H9.74c-2.177 0-4.112-1.449-4.596-3.624l-1.451-7.009c-.726-2.9 1.693-5.799 4.596-5.799h25.399c2.177 0 4.112 1.45 4.596 3.624l1.451 7.009c.726 2.9-1.451 5.799-4.596 5.799z" fill="#DAD1D1"/><path d="M233.735 221.385H106.014l3.628-20.058c1.21-6.525 3.87-12.325 7.499-17.4 3.628-4.833 8.224-8.7 13.546-11.358 5.564-2.9 11.853-4.592 18.626-4.592h38.462c8.708 0 16.691 2.659 23.464 7.009 2.177 1.449 4.112 2.899 5.805 4.591 6.773 6.283 11.611 14.741 13.546 24.408l3.145 17.4zm514.997-1.208l-4.838.241-4.837.242-7.016.483H621.253l2.903-16.674.725-3.384c2.177-12.566 10.16-22.958 20.803-28.516 4.838-2.658 10.402-4.35 16.208-4.591h40.88c8.466 0 16.449 2.416 23.222 6.766 10.16 6.283 17.417 16.675 19.594 29.241l3.144 16.192z" fill="#000"/><path opacity=".75" d="M561.505 51.497l-41.607 54.615h32.898l41.849-54.615h-33.14zm-15 0l-41.122 54.615h10.401l41.365-54.615h-10.644z" fill="#fff"/><path d="M204.947 210.993c0 19.333-15.723 35.041-35.075 35.041-19.352 0-35.075-15.708-35.075-35.041s15.723-35.041 35.075-35.041c19.352.242 35.075 15.708 35.075 35.041z" fill="#DAD1D1"/><path d="M211.236 174.986c-6.773-4.35-14.998-7.009-23.464-7.009H149.31c-6.773 0-13.062 1.692-18.626 4.592-9.676 9.908-15.723 23.441-15.723 38.424 0 3.625.242 7.008.968 10.391 4.837 25.375 27.092 44.466 53.942 44.708 26.851 0 49.105-19.091 53.943-44.708.726-3.383.968-6.766.968-10.149 0-13.775-5.08-26.583-13.546-36.249zm-73.537 46.398c-.967-3.383-1.693-6.766-1.693-10.391 0-18.608 15.239-33.833 33.865-33.833s33.866 15.225 33.866 33.833c0 3.625-.484 7.008-1.693 10.15-4.355 13.533-17.175 23.441-32.173 23.441-15.239.242-27.818-9.666-32.172-23.2z" fill="#000"/><path d="M195.513 210.993c0 14.016-11.37 25.616-25.641 25.616-14.03 0-25.642-11.358-25.642-25.616 0-14.017 11.37-25.616 25.642-25.616 14.03.241 25.641 11.599 25.641 25.616z" fill="#fff"/><path d="M185.353 210.993c0 8.458-7.015 15.467-15.481 15.467-8.466 0-15.481-7.009-15.481-15.467s6.773-15.466 15.481-15.466c8.466.242 15.481 7.008 15.481 15.466z" fill="#DAD1D1"/><path opacity=".5" d="M156.566 183.444c-5.321 2.658-9.917 6.766-13.062 11.841l26.367 15.708-13.305-27.549zm13.305 27.549l13.546 28.033c5.322-2.658 9.918-6.767 13.063-12.083l-26.609-15.95z" fill="#fff"/><path d="M720.189 210.993c0 19.333-15.723 35.041-35.075 35.041-19.352 0-35.075-15.708-35.075-35.041s15.723-35.041 35.075-35.041c19.352.242 35.075 15.708 35.075 35.041z" fill="#DAD1D1"/><path d="M726.236 174.986c-6.773-4.35-14.756-6.767-23.222-6.767h-38.462c-6.773 0-13.062 1.692-18.868 4.592-9.675 9.908-15.481 23.441-15.481 38.182 0 3.625.242 7.008.968 10.392 4.838 25.374 27.092 44.465 53.943 44.707 27.092 0 49.346-19.333 54.184-45.191.484-3.141.968-6.524.968-9.666-.242-14.016-5.322-26.583-14.03-36.249zm-73.295 46.399c-.967-3.384-1.693-6.767-1.693-10.392 0-18.608 15.24-33.832 33.866-33.832 18.626 0 33.865 15.224 33.865 33.832 0 3.625-.484 7.008-1.693 10.15-4.354 13.533-17.175 23.441-32.172 23.441-15.24.242-27.819-9.666-32.173-23.199z" fill="#000"/><path d="M710.513 210.993c0 14.017-11.369 25.616-25.641 25.616-14.03 0-25.641-11.358-25.641-25.616 0-14.016 11.369-25.616 25.641-25.616 14.272.242 25.641 11.6 25.641 25.616z" fill="#fff"/><path d="M700.354 210.993c0 8.458-7.015 15.467-15.481 15.467-8.466 0-15.481-7.009-15.481-15.467s7.015-15.466 15.481-15.466c8.708.242 15.481 7.008 15.481 15.466z" fill="#DAD1D1"/><path opacity=".5" d="M671.808 183.444c-5.322 2.658-9.918 6.767-13.063 11.842l26.367 15.708-13.304-27.55zm13.305 27.549l13.546 28.033c5.322-2.658 9.918-6.766 13.063-12.083l-26.609-15.95z" fill="#fff"/><path d="M485.791 138.978l-.242 3.867 4.354 42.532h123.851c9.192-17.158 24.915-30.207 44.267-36.007v-10.392h-172.23z" fill="#fff"/><path d="M294.449 145.503l5.564 40.116h175.375l-4.354-42.532.242-4.108H296.143l-1.694 6.524z" fill="#F9B233"/><path d="M424.591 146.953h-16.933v16.917h16.933v-16.917zm-16.934 16.917h-16.932v16.916h16.932V163.87zm-16.689-16.917h-16.933v16.917h16.933v-16.917zm-16.936 16.917H357.1v16.916h16.932V163.87zm-16.929-16.917H340.17v16.916h16.933v-16.916z" fill="#000"/><path opacity=".3" d="M117.138 183.927c-3.87 4.833-6.531 10.874-7.498 17.399l-3.629 20.058H91.497l-53.943-7.008c-6.289-.725-11.852-3.867-15.965-8.458h-.483c.241 2.416-1.452 4.35-3.87 4.591l-9.677.242c-2.419 0-4.596-1.692-5.08-4.108l-2.418-15.95v-1.45l117.077-5.316zm544.753-15.708c-5.806.242-11.369 1.934-16.207 4.592-10.644 5.558-18.626 15.95-20.803 28.516l-3.629 20.058H233.734l-3.145-17.4a42.442 42.442 0 00-13.546-24.408l444.606-19.332.242 7.974zm223.995 21.266c.242 4.834-4.112 8.459-8.708 8.7l-9.918.484c-5.321 8.458-14.514 14.499-25.399 15.224l-92.888 6.525-2.903-16.191c-2.177-12.325-9.434-22.716-19.594-29.241-6.773-4.35-14.755-6.767-23.222-6.767h-40.88l-.242-7.975 211.659-9.183 1.936 14.742c.483 4.108-.726 7.733-2.419 7.974h-1.21l.484 3.625h3.628c5.08 0 9.434 3.867 9.918 8.942-.484.966-.242 2.175-.242 3.141z" fill="#F9B233"/><path d="M473.696 109.737H308.239c-.725 0-1.451-.483-1.451-1.208-.242-.725 0-1.45.726-1.933l.725-.484c.242-.241.726-.483.968-.725l71.359-54.857c2.661-1.933 5.806-3.142 8.951-3.142h88.534c.483 0 .967.242 1.209.484.242.241.484.725.484 1.208l-4.112 58.724c-.484 1.45-1.21 1.933-1.936 1.933zm-160.619-3.141h158.926l3.871-55.583h-86.841c-2.661 0-5.08.967-7.015 2.417l-68.941 53.166z" fill="#F9B233"/><path d="M332.669 84.846l-1.21.242c-3.87.483-7.015 3.383-7.982 7.008l-1.452 5.558-9.675 8.941.967 2.417 9.918.967c2.419 3.625 6.773 5.799 11.369 5.074l1.693-.241-3.628-29.966z" fill="#F9B233"/></svg>