<svg width="192" height="269" fill="none" xmlns="http://www.w3.org/2000/svg"><path d="M106.883 163.683c-.242 1.45-.726 3.383-1.694 5.316 0 0-.725 1.45-2.177 3.625-.242.483-.725 1.208-1.209 1.933-1.694 2.9-4.112 6.767-6.531 10.875-2.178 3.625-4.355 7.492-6.774 11.6-3.87 6.766-7.982 14.016-11.369 20.541-3.628 7.008-6.531 12.808-7.74 16.675-1.452 4.591 2.419 15.224 3.386 17.641.242.242.242.483.242.483 1.451 2.175 3.387 4.108 5.322 6.042 2.903 3.141 5.08 5.316 1.935 5.558l-2.42-.967-4.353-1.691-11.37-4.35c-1.934-.725-3.386-2.417-3.87-4.35l-1.693-6.283-2.66 7.25-4.113-1.692c3.628-9.183 0-12.566 9.192-21.991 2.66-2.659 6.047-22.716 10.16-38.183 1.451-5.8 3.144-10.874 4.838-14.258 1.693-3.383 3.386-6.041 5.321-8.7.242-.483.726-.966.968-1.45 2.66-3.624 5.322-6.524 7.015-8.458 1.693-1.691 2.66-2.416 2.66-2.416 8.467-2.9 18.143-1.45 16.934 7.25z" fill="#F0A073"/><path d="M58.5 229.898s.484 0 .726.242c2.42 1.45 3.87 4.108 4.113 6.766l.725 7.008c.242 3.142 2.42 5.8 5.322 6.767l3.387 1.208v.242c4.112 5.8 12.094 11.116 7.015 11.358l-18.143-7.008c-1.935-.725-3.386-2.417-3.87-4.35l-1.693-6.283-2.661 7.249-4.112-1.691c3.628-8.7 0-12.325 9.192-21.508z" fill="#C21E1D"/><path d="M33.826 115.109L71.804 134.2s-1.693 6.766-2.177 6.766c-12.337-2.174-37.494-9.666-43.541-13.774-7.257-4.592-.726-16.916 7.74-12.083z" fill="#456F96"/><path d="M51.484 10.952c-.968-2.658-1.452-5.8-3.629-7.491 6.048-.242 11.853 4.108 13.789 9.666.725 2.417.967 5.075 2.419 7.008-5.564-.241-10.644-3.866-12.58-9.183z" fill="#21201D"/><path d="M49.55 37.535l-.726 3.625-.968 3.867-.967 4.591-.968 4.592-1.21 6.525L27.296 48.41l6.531-24.891L49.55 37.535z" fill="#FFAE80"/><path d="M44.47 54.21c5.563 22.957 16.69 22.232 18.142 35.04.967 9.425-8.95 13.05-8.95 13.05-2.903 13.292-5.08 24.891-4.113 33.591 0 0-28.302-5.316-30.237-5.8 4.596-13.291-3.628-27.791-3.628-52.199 0-13.05 12.094-31.174 12.094-31.174s15.966 3.867 16.691 7.492z" fill="#FFAE80"/><path d="M63.337 89.25v1.692c-.241 8.217-9.675 11.358-9.675 11.358v3.625c0 1.934-.242 3.867-.484 5.8-.242 3.867-.726 7.25-1.21 10.392-.483 3.866-1.21 7.733-1.451 11.116 0 .483 0 .967-.242 1.45 0 0-.726 0-1.935-.242-2.66-.483-7.983-1.208-13.304-1.933-.242 0-.726 0-.968-.241-7.015-.967-13.788-1.934-14.514-2.175.242-.967.726-1.934.726-2.9.242-.484.242-.967.242-1.45.242-2.175.484-4.35.242-6.525v-2.175c-.242-3.867-1.21-8.217-1.936-12.808-.967-5.075-1.935-10.633-2.418-17.158 0-.967-.242-1.933-.242-2.9 0-1.933-.242-4.108-.242-6.283 0-12.808 7.982-24.65 8.466-25.375 0 0 2.661.967 5.564 1.934 0 0 12.82 3.383 25.157 20.057 3.87 4.834 7.499 7.975 8.224 14.742z" fill="#5589B9"/><path opacity=".4" d="M47.858 45.026l-.968 4.592-.967 4.591c-2.177-1.45-5.564-4.108-6.532-5.558-2.902-4.35-3.87-8.942-4.112-14.258 2.42 4.108 7.257 7.492 11.37 9.908.483.483.967.483 1.209.725z" fill="#FFAE80"/><path d="M61.645 29.319c-1.935-2.659-3.145-4.109-3.628-6.284C64.306-7.896.929 2.253 24.877 34.877l6.047-.725c3.145 7.733 8.225 12.566 18.142 14.258 3.387-.242 6.29 0 8.709-2.417 1.451-2.175 2.177-5.558 1.935-10.633 0-.966.484-1.933 1.451-2.416.726-.725 1.694-1.934.484-3.625z" fill="#FFAE80"/><path d="M27.296 48.41c-1.936-2.66-13.063-10.15-13.304-24.891-.726-30.45 41.848-26.583 41.848-13.05 0 0-.242-2.175-6.532 8.216-3.628 6.042-9.917 6.767-11.852 14.983-3.629 14.742-10.16 14.742-10.16 14.742z" fill="#21201D"/><path d="M105.428 267.355l-19.352-2.416c-1.935-.242-3.87-1.45-4.838-3.142l-3.145-5.558-.242 2.175-.483 4.592v.966l-4.355-.483c0-.725.242-1.45.242-2.175.242-3.867-.483-6.525-.483-9.425 0-3.141.483-6.525 3.87-12.083 1.21-2.175.967-11.6.726-22.233-.242-6.525-.484-13.533-.242-19.574 0-5.075.483-9.425 1.21-12.567.483-1.691.967-3.625 1.45-5.075.726-2.175 1.452-4.108 2.177-6.041l1.452-3.625c1.21-2.658 2.419-4.592 3.145-6.283 1.21-1.934 1.935-3.142 1.935-3.142 7.982-5.075 17.658-6.283 18.626 2.417.242 1.45 0 3.383-.242 5.558 0 0-.242 1.208-.968 2.9-.242.966-.725 1.933-.967 3.141-.968 2.9-1.935 6.767-3.387 11.117-.967 2.9-1.935 6.283-2.66 9.666-4.839 16.917-10.16 36.975-10.644 45.191-.484 5.558 7.982 16.916 7.982 16.916 5.08 4.592 14.03 7.734 9.193 9.183z" fill="#FFAE80"/><path d="M76.4 239.805s.483 0 .967.242c2.66.966 4.596 2.9 5.564 5.558l2.419 6.767c.967 2.899 3.628 5.074 6.773 5.316l3.628.242c0 .241.242.241.242.241 5.322 4.592 14.514 7.733 9.676 9.425l-19.352-2.416c-1.935-.242-3.87-1.45-4.838-3.142l-3.144-5.558-.968 7.733-4.354-.483c1.21-10.15-3.145-12.567 3.386-23.925z" fill="#EA4A49"/><path d="M40.601 30.527c.726 3.142 1.21 5.075-.725 5.558-2.177.483-5.806-1.691-6.532-4.833-.725-3.142.968-5.317 3.145-5.8 2.177-.483 3.387 1.933 4.112 5.075z" fill="#FFAE80"/><path d="M39.872 35.118c.242.725-.242 1.692-1.21 1.934-.725.241-1.692-.242-1.934-1.209-.242-.725.242-1.691 1.21-1.933.967 0 1.692.484 1.934 1.209z" fill="#fff"/><path opacity=".3" d="M63.338 90.942c-.242 8.217-9.434 11.358-9.434 11.358v3.625c0 1.934-.242 3.867-.242 5.8-.484 3.867-.726 7.25-1.21 10.392-.483 3.866-1.209 7.733-1.45 11.116l-2.178-.483-14.514-2.9-12.82-2.658-.726-1.45c.242-2.175.484-4.35.242-6.525v-2.175c-.242-3.867-1.21-8.217-1.935-12.808-.968-5.075-1.936-10.633-2.42-17.158 0-.967-.241-1.933-.241-2.9 0-1.933-.242-4.108-.242-6.283 0-12.808 7.983-24.65 8.466-25.375C16.41 74.751 28.021 79.584 40.6 83.451l8.225 15.708c5.564-.483 10.885-3.625 14.514-8.217z" fill="#456F96"/><path opacity=".5" d="M90.916 146.282s-39.43 3.384-56.12-14.016c-4.596-4.592-10.885-4.108-13.788-5.075l12.82 2.658 14.514 2.9c3.145.484 20.803 4.109 42.574 13.533z" fill="#EA4A49"/><path d="M81.48 136.133l12.578 3.624 5.563 6.284-2.418 8.458-5.564 1.208c-1.21-1.208-.726-2.416.968-2.9l-3.387-4.591c-3.629.241-6.29-3.142-8.708-5.075l.967-7.008z" fill="#FFAE80"/><path d="M48.34 112.692l33.14 23.441s-.725 7.25-.967 7.25c-12.579-3.625-35.075-12.808-40.88-17.641-7.016-5.558 1.209-17.883 8.708-13.05z" fill="#5589B9"/><path d="M107.121 171.898c-.725 4.35-2.177 9.183-3.87 14.741-.484 0-.726.001-1.209-.241h-.726c-1.935-.242-4.112-.725-6.047-.967-5.322-1.208-10.644-2.9-15.966-5.075-1.935-.725-3.87-1.691-5.805-2.658-2.661-1.208-5.322-2.9-7.983-4.35 0 0-31.446.483-44.509-2.658-5.321-1.208-9.192-5.558-10.16-10.875-.967-5.316-1.45-9.425.484-15.466.484-1.934 1.452-4.109 2.42-6.525 1.45-3.383 3.628-6.767 6.53-10.392h.968l12.82 2.659 14.515 2.9c3.144.483 41.122 9.908 53.701 20.057.967.725 1.935 1.692 2.66 2.417.968 1.208 1.694 2.417 2.177 3.625 1.21 3.383.968 7.733 0 12.808z" fill="#EA4A49"/><path d="M38.181 71.61l13.062 45.432c3.387 9.183-10.401 15.949-14.513 4.108L21.248 76.684c-4.354-15.466 13.063-17.641 16.933-5.075z" fill="#5589B9"/><path opacity=".5" d="M102.042 186.399h-.726c-1.935-.242-4.112-.726-6.047-.967-5.322-1.209-10.644-2.9-15.966-5.075-1.935-.725-3.87-1.692-5.805-2.658-2.661-1.209-5.322-2.9-7.983-4.35 0 0-31.446.483-44.509-2.659-5.321-1.208-9.192-5.558-10.16-10.874-.967-5.317-1.45-9.425.484-15.467 5.08 16.675 8.709 32.141 58.781 19.333 9.918 14.983 31.931 22.717 31.931 22.717z" fill="#EA4A49"/><path d="M63.86 183.95v73.707c0 5.8-4.837 10.633-10.643 10.633H10.643C4.838 268.29 0 263.457 0 257.657V183.95c0-5.8 4.838-10.633 10.643-10.633h42.574c5.806 0 10.644 4.592 10.644 10.633z" fill="#F9B233"/><path d="M63.619 192.167H0v5.799h63.619v-5.799z" fill="#5E4A4C"/><path d="M16.935 173.317h-3.87v94.973h3.87v-94.973zm34.59 0h-3.87v87.723h3.87v-87.723z" fill="#5E4A4C"/><path d="M181.419 268.057h-95.79a8.668 8.668 0 01-8.71-8.7v-59.932c0-4.833 3.871-8.7 8.71-8.7h95.79a8.668 8.668 0 018.708 8.7v59.932c.242 4.833-3.628 8.7-8.708 8.7zm-35.797-82.407a32.218 32.218 0 00-24.19 0c-1.451.483-2.903 0-3.628-1.209-.726-1.208 0-2.9 1.693-3.625 8.95-3.625 19.11-3.625 28.06 0 1.693.725 2.419 2.417 1.693 3.625-.725 1.209-2.177 1.692-3.628 1.209z" fill="#000"/><path d="M120.703 190.483h-1.935v-6.525c0-.484.483-.967.967-.967s.968.483.968.967v6.525zm27.82 0h-1.935v-6.525c0-.484.484-.967.967-.967.484 0 .968.483.968.967v6.525zm-59.507 11.358c0 .483-.484.967-.968.967H76.921c-.484 0-.968-.484-.968-.967v-3.625c0-4.591 3.87-8.458 8.466-8.458h3.629c.484 0 .968.483.968.967v11.116zm89.019 0c0 .483.484.967.968.967h11.127c.484 0 .968-.484.968-.967v-3.625c0-4.591-3.871-8.458-8.467-8.458h-3.628c-.484 0-.968.483-.968.967v11.116zm0 54.857c0-.483.484-.967.968-.967h11.127c.484 0 .968.484.968.967v3.625c0 4.591-3.871 8.458-8.467 8.458h-3.628c-.484 0-.968-.483-.968-.967v-11.116zm-89.019 0c0-.483-.484-.967-.968-.967H76.921c-.484 0-.968.484-.968.967v3.625c0 4.591 3.87 8.458 8.466 8.458h3.629c.484 0 .968-.483.968-.967v-11.116z" fill="#DADADA"/><path d="M94.097 214.157H71.358v-5.316c0-2.175-1.693-3.867-3.87-3.867H51.28c-2.177 0-3.87 1.692-3.87 3.867v5.316H24.671c-5.322 0-9.434 4.108-9.434 9.425v35.041c0 5.316 4.113 9.425 9.434 9.425h69.666c5.322 0 9.434-4.109 9.434-9.425v-35.041c-.241-5.075-4.354-9.425-9.675-9.425zm-43.058-5.316c0-.242.242-.242.242-.242h16.207c.242 0 .242.242.242.242v5.316H51.039v-5.316z" fill="#EA4A49"/><path d="M39.67 214.158h-7.74v53.89h7.74v-53.89zm47.17 0H79.1v53.89h7.74v-53.89z" fill="#FDFDFD"/><path d="M40.88 230.107H30.72v-9.425h10.16v9.425zm-7.74-2.416h5.321v-4.592H33.14v4.592zm54.91 2.416H77.89v-9.425h10.16v9.425zm-7.74-2.416h5.321v-4.592H80.31v4.592z" fill="#231F20"/></svg>