<svg width="68" height="90" fill="none" xmlns="http://www.w3.org/2000/svg"><path d="M64.072 90H3.928C1.758 90 0 88.23 0 86.046V3.954C0 1.77 1.759 0 3.928 0H51.57L68 15.724v70.322C68 88.23 66.24 90 64.071 90z" fill="#F4F4F4"/><path d="M51.57 0h-7.063l16.429 15.724v70.322c0 2.184-1.758 3.954-3.928 3.954h7.064C66.24 90 68 88.23 68 86.046V15.724L51.57 0z" fill="#E8E8E8"/><path d="M60.936 8.963L51.57 0H3.928C1.758 0 0 1.77 0 3.954v5.01h60.936z" fill="#F6D867"/><path d="M46.413 8.963h14.523L51.57 0h-5.157v8.963z" fill="#E0C55E"/><path d="M51.57 0v11.77c0 2.184 1.759 3.954 3.928 3.954H68L51.57 0z" fill="#DEDCDD"/><path d="M0 64.956v21.09C0 88.23 1.759 90 3.928 90h60.144C66.242 90 68 88.23 68 86.046v-21.09H0z" fill="#F6D867"/><path d="M60.936 86.045c0 2.184-1.758 3.954-3.928 3.954h7.063C66.239 90 68 88.232 68 86.045v-21.09h-7.063v21.09z" fill="#E0C55E"/><path d="M27.967 83.676c2.525 0 4.571-2.02 4.571-4.513v-6.619c0-.596-.48-1.08-1.072-1.08-.592 0-1.073.484-1.073 1.08v6.619c0 2.785-3.952 3.418-4.747.659a1.069 1.069 0 00-1.026-.776c-.716 0-1.227.701-1.023 1.39a4.533 4.533 0 004.37 3.24zm11.712-2.071c-1.175 0-2.329-.438-3.35-.96-.69-.354-1.507.154-1.507.932 0 .392.215.735.533.914 4.006 2.237 9.089 1.181 9.089-2.425 0-2.672-2.603-3.221-4.836-3.628-1.48-.27-2.48-.407-2.484-1.388-.003-.825.708-1.692 2.502-1.692 2.072 0 3.02 1.016 3.666 1.016 1.066 0 1.434-1.447.486-1.955-4.756-2.553-8.794-.434-8.799 2.72-.004 2.874 2.8 3.299 4.629 3.6 1.689.277 2.69.46 2.698 1.396.011 1.24-1.783 1.47-2.627 1.47z" fill="#495663"/></svg>