<svg width="60" height="90" fill="none" xmlns="http://www.w3.org/2000/svg"><path d="M14.995 90c8.28 0 14.996-6.714 14.996-14.993V60.013H14.995C6.715 60.013 0 66.728 0 75.007s6.716 14.994 14.995 14.994z" fill="#0ACF83"/><path d="M0 45.001c0-8.278 6.716-14.993 14.995-14.993h14.996v30.006H14.995C6.715 59.995 0 53.28 0 45z" fill="#A259FF"/><path d="M0 14.994C0 6.715 6.716 0 14.995 0h14.996v30.006H14.995C6.715 30.006 0 23.273 0 14.994z" fill="#F24E1E"/><path d="M30.01 0h14.995C53.285 0 60 6.715 60 14.994s-6.716 14.994-14.995 14.994H30.009V0z" fill="#FF7262"/><path d="M60 45.001c0 8.28-6.716 14.994-14.995 14.994-8.28 0-14.996-6.715-14.996-14.994 0-8.278 6.716-14.993 14.996-14.993C53.285 30.008 60 36.723 60 45z" fill="#1ABCFE"/></svg>