<?xml version="1.0" encoding="utf-8"?><svg xmlns="http://www.w3.org/2000/svg" xmlns:xlink="http://www.w3.org/1999/xlink"><symbol viewBox="0 0 8 12" id="arrow" xmlns="http://www.w3.org/2000/svg"><path fill-rule="evenodd" clip-rule="evenodd" d="M1.312 0L0 1.177 5.375 6 0 10.823 1.312 12 8 6 1.312 0z"/></symbol><symbol viewBox="0 0 15 15" id="btn-close" xmlns="http://www.w3.org/2000/svg"><path d="M2.219 14.611a1.288 1.288 0 01-1.844 0A1.26 1.26 0 010 13.69c0-.345.115-.662.375-.921L5.648 7.5.375 2.231A1.26 1.26 0 010 1.31C0 .964.115.648.375.389a1.288 1.288 0 011.844 0l5.274 5.268L12.767.39a1.288 1.288 0 011.844 0 1.285 1.285 0 010 1.842L9.337 7.5l5.274 5.269a1.285 1.285 0 010 1.842 1.288 1.288 0 01-1.844 0L7.493 9.343 2.219 14.61z"/></symbol><symbol viewBox="0 0 16 16" id="close-burger" xmlns="http://www.w3.org/2000/svg"><path fill-rule="evenodd" clip-rule="evenodd" d="M.707 0L0 .707l7.071 7.071L0 14.85l.707.707 7.071-7.07 7.071 7.07.707-.707-7.07-7.07 7.07-7.072L14.85 0 7.78 7.071.706 0z"/></symbol><symbol viewBox="0 0 100 52" id="dlk-logo" xmlns="http://www.w3.org/2000/svg"><path fill-rule="evenodd" clip-rule="evenodd" d="M0 0h18.113C31.12 0 40.406 12.371 40.406 24.036v3.697c0 11.664-9.286 24.036-22.293 24.036H0V0zm37.62 24.036c0-10.523-8.403-21.263-19.507-21.263H2.787v46.223h15.326c11.104 0 19.506-10.74 19.506-21.263v-3.697z"/><path d="M46.444 0h2.786v49.227h14.862V52H46.444V0zM67.807 0v51.769h2.787V27.383l.684-.68 24.81 25.066H100L73.249 24.74 98.109 0h-3.941L70.594 23.461V0h-2.787z"/></symbol><symbol viewBox="0 0 59 59" id="icon-followme" xmlns="http://www.w3.org/2000/svg"><path d="M29.489 2.008h.022c5.466-.03 7.971.023 11.996.192 2.975.173 4.344.437 6.523 1.228 2.092.848 3.02 1.47 4.58 2.962 1.492 1.56 2.114 2.488 2.962 4.58.791 2.18 1.055 3.548 1.228 6.523.169 4.025.223 6.53.192 11.996v.022c.03 5.466-.023 7.971-.192 11.996-.173 2.975-.437 4.344-1.228 6.523-.848 2.092-1.47 3.02-2.962 4.58-1.56 1.492-2.488 2.114-4.58 2.962-2.18.791-3.548 1.055-6.523 1.228-4.025.169-6.53.223-11.996.192h-.022c-5.466.03-7.971-.023-11.996-.192-2.975-.173-4.344-.437-6.523-1.228-2.092-.848-3.02-1.47-4.58-2.962-1.492-1.56-2.114-2.488-2.962-4.58-.791-2.18-1.055-3.548-1.228-6.523-.169-4.025-.223-6.53-.192-11.996v-.022c-.03-5.466.023-7.971.192-11.996.173-2.975.437-4.344 1.228-6.523.848-2.092 1.47-3.02 2.962-4.58 1.56-1.492 2.488-2.114 4.58-2.962 2.18-.791 3.548-1.055 6.523-1.228 4.025-.169 6.53-.223 11.996-.192z" stroke="#2C3036" stroke-width="4" stroke-linecap="square"/><circle cx="29.5" cy="29.5" r="12.5" stroke="#2C3036" stroke-width="4" stroke-linecap="square"/><circle cx="45.5" cy="13.5" r="3.5"/></symbol><symbol viewBox="0 0 32 32" id="music-off" xmlns="http://www.w3.org/2000/svg"><defs><style>.cls-1{fill:#101820}</style></defs><g id="fLayer_35"><path d="M18 29a1 1 0 01-.57-.18l-10-7A1 1 0 017 21V11a1 1 0 01.43-.82l10-7a1 1 0 011-.07A1 1 0 0119 4v24a1 1 0 01-.54.89A1 1 0 0118 29zm-9-8.52l8 5.6V5.92l-8 5.6z"/><path d="M8 22H4a3 3 0 01-3-3v-6a3 3 0 013-3h4a1 1 0 011 1v10a1 1 0 01-1 1zM4 12a1 1 0 00-1 1v6a1 1 0 001 1h3v-8z"/><path transform="rotate(-45 25.758 16)" d="M24.76 10h2v12h-2z"/><path transform="rotate(-45 25.758 16)" d="M19.76 15h12v2h-12z"/></g></symbol><symbol viewBox="0 0 32 32" id="music-on" xmlns="http://www.w3.org/2000/svg"><defs><style>.cls-1{fill:#101820}</style></defs><g id="gLayer_34"><path d="M18 29a1 1 0 01-.57-.18l-10-7A1 1 0 017 21V11a1 1 0 01.43-.82l10-7a1 1 0 011-.07A1 1 0 0119 4v24a1 1 0 01-.54.89A1 1 0 0118 29zm-9-8.52l8 5.6V5.92l-8 5.6z"/><path d="M8 22H4a3 3 0 01-3-3v-6a3 3 0 013-3h4a1 1 0 011 1v10a1 1 0 01-1 1zM4 12a1 1 0 00-1 1v6a1 1 0 001 1h3v-8zM18 21v-2a3 3 0 002.12-5.12l1.42-1.42A5 5 0 0118 21zM26.48 25.48a1 1 0 01-.71-.29 1 1 0 010-1.42 11 11 0 000-15.54 1 1 0 111.42-1.42 13 13 0 010 18.38 1 1 0 01-.71.29z"/><path d="M23.65 22.65a1 1 0 01-.7-.29A1 1 0 0123 21a7 7 0 000-9.9 1 1 0 011.41-1.41 9 9 0 010 12.72 1 1 0 01-.76.24z"/></g></symbol><symbol viewBox="0 0 18 18" id="search" xmlns="http://www.w3.org/2000/svg"><path d="M11.365.26c-3.42 0-6.2 2.82-6.2 6.26 0 1.46.5 2.78 1.32 3.86l-5.88 5.94c-.34.36-.34.92 0 1.26.18.18.4.26.62.26.24 0 .46-.08.64-.26l5.88-5.96c1.02.74 2.26 1.16 3.6 1.16 3.42 0 6.2-2.82 6.2-6.26.02-3.46-2.76-6.26-6.18-6.26zm0 10.94c-2.54 0-4.6-2.1-4.6-4.68 0-2.58 2.06-4.68 4.6-4.68 2.54 0 4.6 2.1 4.6 4.68 0 2.58-2.06 4.68-4.6 4.68zm3.1-4.6a.69.69 0 01-.68.6h-.1a.71.71 0 01-.6-.78c.14-1.04-1.02-1.58-1.08-1.6-.34-.16-.5-.58-.34-.92.16-.34.56-.5.92-.36.08.02 2.16.98 1.88 3.06zm-1.46 1.52c.14.14.24.36.24.56 0 .22-.08.42-.24.56a.84.84 0 01-.56.24c-.2 0-.42-.08-.56-.24a.84.84 0 01-.24-.56c0-.2.08-.42.24-.56a.84.84 0 01.56-.24c.2 0 .4.08.56.24z"/></symbol><symbol viewBox="0 0 14 13" id="star" xmlns="http://www.w3.org/2000/svg"><path d="M5.608.927c.3-.921 1.603-.921 1.903 0L8.58 4.22h3.46c.97 0 1.372 1.24.588 1.809l-2.8 2.034 1.07 3.292c.299.921-.756 1.688-1.54 1.118l-2.8-2.034-2.8 2.034c-.783.57-1.838-.197-1.538-1.118l1.07-3.292L.49 6.028c-.784-.57-.381-1.81.588-1.81h3.46l1.07-3.29z"/></symbol></svg>